SourceSerifMaster-Italic.ufo
<glyph name="quotedbl" format="2">
  <advance width="421"/>
  <unicode hex="0022"/>
  <outline>
    <contour>
      <point x="225" y="736" type="curve" smooth="yes"/>
      <point x="196" y="736"/>
      <point x="179" y="723"/>
      <point x="172" y="680" type="curve" smooth="yes"/>
      <point x="165" y="642"/>
      <point x="160" y="537"/>
      <point x="160" y="504" type="curve" smooth="yes"/>
      <point x="159" y="434" type="line"/>
      <point x="192" y="434" type="line"/>
      <point x="224" y="537"/>
      <point x="262" y="651"/>
      <point x="262" y="690" type="curve" smooth="yes"/>
      <point x="262" y="717"/>
      <point x="250" y="736"/>
    </contour>
    <contour>
      <point x="389" y="736" type="curve" smooth="yes"/>
      <point x="360" y="736"/>
      <point x="343" y="723"/>
      <point x="336" y="680" type="curve" smooth="yes"/>
      <point x="329" y="642"/>
      <point x="324" y="537"/>
      <point x="324" y="504" type="curve" smooth="yes"/>
      <point x="323" y="434" type="line"/>
      <point x="356" y="434" type="line"/>
      <point x="388" y="537"/>
      <point x="426" y="651"/>
      <point x="426" y="690" type="curve" smooth="yes"/>
      <point x="426" y="717"/>
      <point x="414" y="736"/>
    </contour>
  </outline>
</glyph>
<glyph name="parenright" format="2">
  <advance width="375"/>
  <unicode hex="0029"/>
  <outline>
    <contour>
      <point x="174" y="714" type="curve"/>
      <point x="141" y="693" type="line"/>
      <point x="215" y="568"/>
      <point x="249" y="465"/>
      <point x="249" y="330" type="curve" smooth="yes"/>
      <point x="249" y="118"/>
      <point x="159" y="-35"/>
      <point x="-24" y="-181" type="curve"/>
      <point x="-1" y="-212" type="line"/>
      <point x="217" y="-66"/>
      <point x="326" y="120"/>
      <point x="326" y="327" type="curve" smooth="yes"/>
      <point x="326" y="471"/>
      <point x="271" y="594"/>
    </contour>
  </outline>
</glyph>
<glyph name="zero" format="2">
  <advance width="510"/>
  <unicode hex="0030"/>
  <outline>
    <contour>
      <point x="218" y="-9" type="curve" smooth="yes"/>
      <point x="371" y="-9"/>
      <point x="508" y="189"/>
      <point x="508" y="435" type="curve" smooth="yes"/>
      <point x="508" y="584"/>
      <point x="447" y="656"/>
      <point x="343" y="656" type="curve" smooth="yes"/>
      <point x="182" y="656"/>
      <point x="53" y="461"/>
      <point x="53" y="212" type="curve" smooth="yes"/>
      <point x="53" y="72"/>
      <point x="114" y="-9"/>
    </contour>
    <contour>
      <point x="228" y="33" type="curve" smooth="yes"/>
      <point x="168" y="33"/>
      <point x="131" y="79"/>
      <point x="131" y="219" type="curve" smooth="yes"/>
      <point x="131" y="440"/>
      <point x="238" y="614"/>
      <point x="333" y="614" type="curve" smooth="yes"/>
      <point x="386" y="614"/>
      <point x="430" y="570"/>
      <point x="430" y="435" type="curve" smooth="yes"/>
      <point x="430" y="204"/>
      <point x="325" y="33"/>
    </contour>
  </outline>
</glyph>
<glyph name="two" format="2">
  <advance width="510"/>
  <unicode hex="0032"/>
  <outline>
    <contour>
      <point x="41" y="0" type="line"/>
      <point x="419" y="0" type="line"/>
      <point x="435" y="76" type="line"/>
      <point x="96" y="76" type="line"/>
      <point x="106" y="60" type="line"/>
      <point x="241" y="182" type="line" smooth="yes"/>
      <point x="403" y="328"/>
      <point x="501" y="393"/>
      <point x="501" y="506" type="curve" smooth="yes"/>
      <point x="501" y="593"/>
      <point x="447" y="660"/>
      <point x="326" y="660" type="curve" smooth="yes"/>
      <point x="219" y="660"/>
      <point x="155" y="613"/>
      <point x="131" y="502" type="curve"/>
      <point x="134" y="482"/>
      <point x="150" y="465"/>
      <point x="171" y="465" type="curve" smooth="yes"/>
      <point x="198" y="465"/>
      <point x="215" y="479"/>
      <point x="222" y="539" type="curve" smooth="yes"/>
      <point x="232" y="628" type="line"/>
      <point x="191" y="565" type="line"/>
      <point x="223" y="605"/>
      <point x="260" y="620"/>
      <point x="307" y="620" type="curve" smooth="yes"/>
      <point x="382" y="620"/>
      <point x="424" y="580"/>
      <point x="424" y="502" type="curve" smooth="yes"/>
      <point x="424" y="426"/>
      <point x="377" y="369"/>
      <point x="201" y="203" type="curve" smooth="yes"/>
      <point x="54" y="64" type="line"/>
    </contour>
  </outline>
</glyph>
<glyph name="five" format="2">
  <advance width="510"/>
  <unicode hex="0035"/>
  <outline>
    <contour>
      <point x="216" y="-13" type="curve" smooth="yes"/>
      <point x="349" y="-13"/>
      <point x="462" y="63"/>
      <point x="462" y="214" type="curve" smooth="yes"/>
      <point x="462" y="319"/>
      <point x="399" y="389"/>
      <point x="275" y="389" type="curve" smooth="yes"/>
      <point x="233" y="389"/>
      <point x="189" y="380"/>
      <point x="158" y="366" type="curve"/>
      <point x="183" y="357" type="line"/>
      <point x="243" y="612" type="line"/>
      <point x="212" y="567" type="line"/>
      <point x="504" y="567" type="line"/>
      <point x="521" y="647" type="line"/>
      <point x="209" y="647" type="line"/>
      <point x="135" y="337" type="line"/>
      <point x="162" y="331" type="line"/>
      <point x="184" y="343"/>
      <point x="215" y="350"/>
      <point x="256" y="350" type="curve" smooth="yes"/>
      <point x="339" y="350"/>
      <point x="383" y="297"/>
      <point x="383" y="206" type="curve" smooth="yes"/>
      <point x="383" y="89"/>
      <point x="310" y="26"/>
      <point x="214" y="26" type="curve" smooth="yes"/>
      <point x="177" y="26"/>
      <point x="152" y="32"/>
      <point x="126" y="54" type="curve"/>
      <point x="146" y="19" type="line"/>
      <point x="142" y="98" type="line" smooth="yes"/>
      <point x="138" y="153"/>
      <point x="129" y="174"/>
      <point x="98" y="174" type="curve" smooth="yes"/>
      <point x="81" y="174"/>
      <point x="63" y="166"/>
      <point x="54" y="145" type="curve"/>
      <point x="58" y="42"/>
      <point x="110" y="-13"/>
    </contour>
  </outline>
</glyph>
<glyph name="six" format="2">
  <advance width="510"/>
  <unicode hex="0036"/>
  <outline>
    <contour>
      <point x="261" y="-13" type="curve" smooth="yes"/>
      <point x="363" y="-13"/>
      <point x="478" y="71"/>
      <point x="478" y="220" type="curve" smooth="yes"/>
      <point x="478" y="320"/>
      <point x="420" y="387"/>
      <point x="329" y="387" type="curve" smooth="yes"/>
      <point x="259" y="387"/>
      <point x="202" y="361"/>
      <point x="145" y="307" type="curve"/>
      <point x="156" y="288" type="line"/>
      <point x="199" y="322"/>
      <point x="248" y="330"/>
      <point x="289" y="330" type="curve" smooth="yes"/>
      <point x="362" y="330"/>
      <point x="400" y="297"/>
      <point x="400" y="207" type="curve" smooth="yes"/>
      <point x="400" y="89"/>
      <point x="339" y="26"/>
      <point x="276" y="26" type="curve" smooth="yes"/>
      <point x="198" y="26"/>
      <point x="158" y="85"/>
      <point x="158" y="212" type="curve" smooth="yes"/>
      <point x="158" y="427"/>
      <point x="286" y="601"/>
      <point x="533" y="627" type="curve"/>
      <point x="531" y="658" type="line"/>
      <point x="250" y="650"/>
      <point x="80" y="443"/>
      <point x="80" y="213" type="curve" smooth="yes"/>
      <point x="80" y="70"/>
      <point x="147" y="-13"/>
    </contour>
  </outline>
</glyph>
<glyph name="seven" format="2">
  <advance width="510"/>
  <unicode hex="0037"/>
  <outline>
    <contour>
      <point x="82" y="10" type="line"/>
      <point x="89" y="0" type="line"/>
      <point x="164" y="0" type="line"/>
      <point x="522" y="597" type="line"/>
      <point x="532" y="647" type="line"/>
      <point x="142" y="647" type="line"/>
      <point x="127" y="573" type="line"/>
      <point x="486" y="573" type="line"/>
      <point x="474" y="597" type="line"/>
    </contour>
  </outline>
</glyph>
<glyph name="eight" format="2">
  <advance width="510"/>
  <unicode hex="0038"/>
  <outline>
    <contour>
      <point x="233" y="-11" type="curve" smooth="yes"/>
      <point x="349" y="-11"/>
      <point x="442" y="59"/>
      <point x="442" y="166" type="curve" smooth="yes"/>
      <point x="442" y="243"/>
      <point x="405" y="290"/>
      <point x="310" y="353" type="curve" smooth="yes"/>
      <point x="232" y="403"/>
      <point x="204" y="437"/>
      <point x="204" y="497" type="curve" smooth="yes"/>
      <point x="204" y="574"/>
      <point x="254" y="624"/>
      <point x="326" y="624" type="curve" smooth="yes"/>
      <point x="390" y="624"/>
      <point x="420" y="578"/>
      <point x="420" y="513" type="curve" smooth="yes"/>
      <point x="420" y="444"/>
      <point x="391" y="396"/>
      <point x="294" y="349" type="curve"/>
      <point x="308" y="327" type="line"/>
      <point x="443" y="379"/>
      <point x="488" y="427"/>
      <point x="488" y="521" type="curve" smooth="yes"/>
      <point x="488" y="599"/>
      <point x="428" y="660"/>
      <point x="332" y="660" type="curve" smooth="yes"/>
      <point x="222" y="660"/>
      <point x="135" y="582"/>
      <point x="135" y="480" type="curve" smooth="yes"/>
      <point x="135" y="418"/>
      <point x="169" y="362"/>
      <point x="250" y="304" type="curve" smooth="yes"/>
      <point x="348" y="237"/>
      <point x="370" y="205"/>
      <point x="370" y="144" type="curve" smooth="yes"/>
      <point x="370" y="69"/>
      <point x="316" y="23"/>
      <point x="240" y="23" type="curve" smooth="yes"/>
      <point x="172" y="23"/>
      <point x="134" y="67"/>
      <point x="134" y="139" type="curve" smooth="yes"/>
      <point x="134" y="208"/>
      <point x="175" y="267"/>
      <point x="261" y="307" type="curve"/>
      <point x="248" y="329" type="line"/>
      <point x="143" y="295"/>
      <point x="66" y="215"/>
      <point x="66" y="128" type="curve" smooth="yes"/>
      <point x="66" y="40"/>
      <point x="130" y="-11"/>
    </contour>
  </outline>
</glyph>
<glyph name="nine" format="2">
  <advance width="510"/>
  <unicode hex="0039"/>
  <outline>
    <contour>
      <point x="77" y="24" type="curve"/>
      <point x="86" y="-14" type="line"/>
      <point x="352" y="57"/>
      <point x="508" y="225"/>
      <point x="508" y="441" type="curve" smooth="yes"/>
      <point x="508" y="573"/>
      <point x="445" y="659"/>
      <point x="331" y="659" type="curve" smooth="yes"/>
      <point x="210" y="659"/>
      <point x="109" y="564"/>
      <point x="109" y="434" type="curve" smooth="yes"/>
      <point x="109" y="336"/>
      <point x="174" y="266"/>
      <point x="276" y="266" type="curve" smooth="yes"/>
      <point x="331" y="266"/>
      <point x="383" y="287"/>
      <point x="443" y="331" type="curve"/>
      <point x="437" y="353" type="line"/>
      <point x="386" y="325"/>
      <point x="348" y="312"/>
      <point x="309" y="312" type="curve" smooth="yes"/>
      <point x="229" y="312"/>
      <point x="182" y="365"/>
      <point x="182" y="449" type="curve" smooth="yes"/>
      <point x="182" y="544"/>
      <point x="243" y="620"/>
      <point x="320" y="620" type="curve" smooth="yes"/>
      <point x="396" y="620"/>
      <point x="434" y="552"/>
      <point x="434" y="440" type="curve" smooth="yes"/>
      <point x="434" y="239"/>
      <point x="315" y="104"/>
    </contour>
  </outline>
</glyph>
<glyph name="colon" format="2">
  <advance width="300"/>
  <unicode hex="003A"/>
  <outline>
    <contour>
      <point x="120" y="-10" type="curve" smooth="yes"/>
      <point x="158" y="-10"/>
      <point x="189" y="19"/>
      <point x="189" y="58" type="curve" smooth="yes"/>
      <point x="189" y="89"/>
      <point x="166" y="115"/>
      <point x="132" y="115" type="curve" smooth="yes"/>
      <point x="94" y="115"/>
      <point x="61" y="86"/>
      <point x="61" y="47" type="curve" smooth="yes"/>
      <point x="61" y="14"/>
      <point x="86" y="-10"/>
    </contour>
    <contour>
      <point x="197" y="354" type="curve" smooth="yes"/>
      <point x="235" y="354"/>
      <point x="266" y="383"/>
      <point x="266" y="422" type="curve" smooth="yes"/>
      <point x="266" y="453"/>
      <point x="243" y="479"/>
      <point x="209" y="479" type="curve" smooth="yes"/>
      <point x="171" y="479"/>
      <point x="138" y="450"/>
      <point x="138" y="411" type="curve" smooth="yes"/>
      <point x="138" y="378"/>
      <point x="163" y="354"/>
    </contour>
  </outline>
</glyph>
<glyph name="semicolon" format="2">
  <advance width="300"/>
  <unicode hex="003B"/>
  <outline>
    <contour>
      <point x="197" y="354" type="curve" smooth="yes"/>
      <point x="235" y="354"/>
      <point x="266" y="383"/>
      <point x="266" y="422" type="curve" smooth="yes"/>
      <point x="266" y="453"/>
      <point x="243" y="479"/>
      <point x="209" y="479" type="curve" smooth="yes"/>
      <point x="171" y="479"/>
      <point x="138" y="450"/>
      <point x="138" y="411" type="curve" smooth="yes"/>
      <point x="138" y="378"/>
      <point x="163" y="354"/>
    </contour>
    <contour>
      <point x="20" y="-160" type="line"/>
      <point x="116" y="-120"/>
      <point x="195" y="-31"/>
      <point x="195" y="64" type="curve" smooth="yes"/>
      <point x="195" y="81"/>
      <point x="191" y="93"/>
      <point x="184" y="104" type="curve"/>
      <point x="170" y="111"/>
      <point x="153" y="116"/>
      <point x="139" y="116" type="curve" smooth="yes"/>
      <point x="95" y="116"/>
      <point x="78" y="88"/>
      <point x="78" y="59" type="curve" smooth="yes"/>
      <point x="78" y="39"/>
      <point x="85" y="20"/>
      <point x="95" y="8" type="curve" smooth="yes"/>
      <point x="134" y="-39" type="line"/>
      <point x="132" y="-10" type="line"/>
      <point x="98" y="-68"/>
      <point x="57" y="-106"/>
      <point x="5" y="-132" type="curve"/>
    </contour>
  </outline>
</glyph>
<glyph name="equal" format="2">
  <advance width="530"/>
  <unicode hex="003D"/>
  <outline>
    <contour>
      <point x="503" y="204" type="line"/>
      <point x="503" y="256" type="line"/>
      <point x="59" y="256" type="line"/>
      <point x="59" y="204" type="line"/>
    </contour>
    <contour>
      <point x="503" y="404" type="line"/>
      <point x="503" y="456" type="line"/>
      <point x="59" y="456" type="line"/>
      <point x="59" y="404" type="line"/>
    </contour>
  </outline>
</glyph>
<glyph name="greater" format="2">
  <advance width="530"/>
  <unicode hex="003E"/>
  <outline>
    <contour>
      <point x="476" y="352" type="line"/>
      <point x="114" y="563" type="line"/>
      <point x="86" y="514" type="line"/>
      <point x="421" y="325" type="line"/>
      <point x="421" y="335" type="line"/>
      <point x="86" y="146" type="line"/>
      <point x="114" y="97" type="line"/>
      <point x="476" y="308" type="line"/>
    </contour>
  </outline>
</glyph>
<glyph name="A" format="2">
  <advance width="676"/>
  <unicode hex="0041"/>
  <anchor x="432" y="691" name="aboveUC"/>
  <anchor x="282" y="-22" name="belowLC"/>
  <anchor x="526" y="0" name="ogonek"/>
  <outline>
    <contour>
      <point x="-29" y="0" type="line"/>
      <point x="195" y="0" type="line"/>
      <point x="203" y="40" type="line"/>
      <point x="104" y="55" type="line"/>
      <point x="86" y="55" type="line"/>
      <point x="-21" y="40" type="line"/>
    </contour>
    <contour>
      <point x="33" y="0" type="line"/>
      <point x="88" y="0" type="line"/>
      <point x="403" y="595" type="line"/>
      <point x="389" y="595" type="line"/>
      <point x="469" y="0" type="line"/>
      <point x="557" y="0" type="line"/>
      <point x="463" y="670" type="line"/>
      <point x="406" y="670" type="line"/>
    </contour>
    <contour>
      <point x="195" y="244" type="line"/>
      <point x="481" y="244" type="line"/>
      <point x="494" y="290" type="line"/>
      <point x="209" y="290" type="line"/>
    </contour>
    <contour>
      <point x="367" y="0" type="line"/>
      <point x="631" y="0" type="line"/>
      <point x="639" y="40" type="line"/>
      <point x="520" y="55" type="line"/>
      <point x="502" y="55" type="line"/>
      <point x="375" y="40" type="line"/>
    </contour>
  </outline>
</glyph>
<glyph name="C" format="2">
  <advance width="593"/>
  <unicode hex="0043"/>
  <anchor x="439" y="691" name="aboveUC"/>
  <anchor x="342" y="0" name="baseLC"/>
  <anchor x="319" y="-22" name="belowLC"/>
  <outline>
    <contour>
      <point x="330" y="-15" type="curve" smooth="yes"/>
      <point x="415" y="-15"/>
      <point x="471" y="7"/>
      <point x="524" y="30" type="curve"/>
      <point x="552" y="175" type="line"/>
      <point x="493" y="175" type="line"/>
      <point x="445" y="30" type="line"/>
      <point x="501" y="71" type="line"/>
      <point x="459" y="50"/>
      <point x="412" y="35"/>
      <point x="363" y="35" type="curve" smooth="yes"/>
      <point x="247" y="35"/>
      <point x="148" y="116"/>
      <point x="148" y="285" type="curve" smooth="yes"/>
      <point x="148" y="475"/>
      <point x="269" y="635"/>
      <point x="430" y="635" type="curve" smooth="yes"/>
      <point x="479" y="635"/>
      <point x="535" y="620"/>
      <point x="570" y="592" type="curve"/>
      <point x="529" y="632" type="line"/>
      <point x="529" y="493" type="line"/>
      <point x="585" y="493" type="line"/>
      <point x="608" y="632" type="line"/>
      <point x="546" y="672"/>
      <point x="493" y="685"/>
      <point x="440" y="685" type="curve" smooth="yes"/>
      <point x="232" y="685"/>
      <point x="58" y="502"/>
      <point x="58" y="281" type="curve" smooth="yes"/>
      <point x="58" y="104"/>
      <point x="163" y="-15"/>
    </contour>
  </outline>
</glyph>
<glyph name="I" format="2">
  <advance width="357"/>
  <unicode hex="0049"/>
  <anchor x="266" y="691" name="aboveUC"/>
  <anchor x="141" y="-22" name="belowLC"/>
  <anchor x="177" y="0" name="ogonek"/>
  <outline>
    <contour>
      <point x="16" y="0" type="line"/>
      <point x="280" y="0" type="line"/>
      <point x="288" y="40" type="line"/>
      <point x="169" y="55" type="line"/>
      <point x="151" y="55" type="line"/>
      <point x="24" y="40" type="line"/>
    </contour>
    <contour>
      <point x="101" y="0" type="line"/>
      <point x="189" y="0" type="line"/>
      <point x="205" y="103"/>
      <point x="223" y="207"/>
      <point x="242" y="310" type="curve" smooth="yes"/>
      <point x="310" y="670" type="line"/>
      <point x="222" y="670" type="line"/>
      <point x="206" y="567"/>
      <point x="188" y="463"/>
      <point x="169" y="360" type="curve" smooth="yes"/>
    </contour>
    <contour>
      <point x="122" y="630" type="line"/>
      <point x="243" y="615" type="line"/>
      <point x="262" y="615" type="line"/>
      <point x="386" y="630" type="line"/>
      <point x="394" y="670" type="line"/>
      <point x="130" y="670" type="line"/>
    </contour>
  </outline>
</glyph>
<glyph name="L" format="2">
  <advance width="568"/>
  <unicode hex="004C"/>
  <anchor x="259" y="691" name="aboveUC"/>
  <anchor x="296" y="-22" name="belowLC"/>
  <outline>
    <contour>
      <point x="16" y="0" type="line"/>
      <point x="142" y="0" type="line"/>
      <point x="152" y="55" type="line"/>
      <point x="144" y="55" type="line"/>
      <point x="24" y="40" type="line"/>
    </contour>
    <contour>
      <point x="101" y="0" type="line"/>
      <point x="189" y="0" type="line"/>
      <point x="205" y="103"/>
      <point x="223" y="207"/>
      <point x="242" y="310" type="curve" smooth="yes"/>
      <point x="310" y="670" type="line"/>
      <point x="222" y="670" type="line"/>
      <point x="206" y="567"/>
      <point x="188" y="463"/>
      <point x="169" y="360" type="curve" smooth="yes"/>
    </contour>
    <contour>
      <point x="122" y="630" type="line"/>
      <point x="243" y="615" type="line"/>
      <point x="272" y="615" type="line"/>
      <point x="396" y="630" type="line"/>
      <point x="404" y="670" type="line"/>
      <point x="130" y="670" type="line"/>
    </contour>
    <contour>
      <point x="142" y="0" type="line"/>
      <point x="521" y="0" type="line"/>
      <point x="557" y="188" type="line"/>
      <point x="502" y="188" type="line"/>
      <point x="436" y="0" type="line"/>
      <point x="498" y="50" type="line"/>
      <point x="151" y="50" type="line"/>
    </contour>
  </outline>
</glyph>
<glyph name="Q" format="2">
  <advance width="660"/>
  <unicode hex="0051"/>
  <anchor x="413" y="691" name="aboveUC"/>
  <anchor x="304" y="-21" name="belowLC"/>
  <anchor x="568" y="676" name="hornLC"/>
  <anchor x="392" y="-1" name="ogonek"/>
  <outline>
    <contour>
      <point x="497" y="-250" type="curve" smooth="yes"/>
      <point x="562" y="-250"/>
      <point x="612" y="-223"/>
      <point x="654" y="-186" type="curve"/>
      <point x="639" y="-158" type="line"/>
      <point x="600" y="-178"/>
      <point x="566" y="-187"/>
      <point x="513" y="-187" type="curve" smooth="yes"/>
      <point x="402" y="-187"/>
      <point x="342" y="-110"/>
      <point x="342" y="20" type="curve"/>
      <point x="260" y="20" type="line"/>
      <point x="260" y="-137"/>
      <point x="347" y="-250"/>
    </contour>
    <contour>
      <point x="305" y="-14" type="curve" smooth="yes"/>
      <point x="514" y="-14"/>
      <point x="653" y="179"/>
      <point x="653" y="409" type="curve" smooth="yes"/>
      <point x="653" y="577"/>
      <point x="560" y="684"/>
      <point x="412" y="684" type="curve" smooth="yes"/>
      <point x="208" y="684"/>
      <point x="67" y="491"/>
      <point x="67" y="259" type="curve" smooth="yes"/>
      <point x="67" y="90"/>
      <point x="161" y="-14"/>
    </contour>
    <contour>
      <point x="319" y="36" type="curve" smooth="yes"/>
      <point x="205" y="36"/>
      <point x="154" y="126"/>
      <point x="154" y="258" type="curve" smooth="yes"/>
      <point x="154" y="472"/>
      <point x="253" y="634"/>
      <point x="400" y="634" type="curve" smooth="yes"/>
      <point x="516" y="634"/>
      <point x="566" y="547"/>
      <point x="566" y="410" type="curve" smooth="yes"/>
      <point x="566" y="197"/>
      <point x="467" y="36"/>
    </contour>
  </outline>
</glyph>
<glyph name="T" format="2">
  <advance width="568"/>
  <unicode hex="0054"/>
  <anchor x="381" y="691" name="aboveUC"/>
  <anchor x="257" y="0" name="baseLC"/>
  <anchor x="258" y="-22" name="belowLC"/>
  <outline>
    <contour>
      <point x="76" y="492" type="line"/>
      <point x="126" y="492" type="line"/>
      <point x="191" y="670" type="line"/>
      <point x="137" y="620" type="line"/>
      <point x="590" y="620" type="line"/>
      <point x="554" y="670" type="line"/>
      <point x="554" y="492" type="line"/>
      <point x="604" y="492" type="line"/>
      <point x="633" y="670" type="line"/>
      <point x="112" y="670" type="line"/>
    </contour>
    <contour>
      <point x="115" y="0" type="line"/>
      <point x="399" y="0" type="line"/>
      <point x="407" y="40" type="line"/>
      <point x="278" y="55" type="line"/>
      <point x="260" y="55" type="line"/>
      <point x="123" y="40" type="line"/>
    </contour>
    <contour>
      <point x="210" y="0" type="line"/>
      <point x="298" y="0" type="line"/>
      <point x="314" y="103"/>
      <point x="332" y="207"/>
      <point x="351" y="310" type="curve" smooth="yes"/>
      <point x="419" y="670" type="line"/>
      <point x="331" y="670" type="line"/>
      <point x="315" y="567"/>
      <point x="297" y="463"/>
      <point x="278" y="360" type="curve" smooth="yes"/>
    </contour>
  </outline>
</glyph>
<glyph name="Z" format="2">
  <advance width="537"/>
  <unicode hex="005A"/>
  <anchor x="353" y="691" name="aboveUC"/>
  <anchor x="259" y="-22" name="belowLC"/>
  <outline>
    <contour>
      <point x="1" y="0" type="line"/>
      <point x="73" y="0" type="line"/>
      <point x="582" y="635" type="line"/>
      <point x="589" y="670" type="line"/>
      <point x="516" y="670" type="line"/>
      <point x="8" y="35" type="line"/>
    </contour>
    <contour>
      <point x="89" y="492" type="line"/>
      <point x="147" y="492" type="line"/>
      <point x="210" y="670" type="line"/>
      <point x="148" y="620" type="line"/>
      <point x="543" y="620" type="line"/>
      <point x="553" y="670" type="line"/>
      <point x="123" y="670" type="line"/>
    </contour>
    <contour>
      <point x="48" y="0" type="line"/>
      <point x="484" y="0" type="line"/>
      <point x="519" y="178" type="line"/>
      <point x="460" y="178" type="line"/>
      <point x="398" y="0" type="line"/>
      <point x="459" y="50" type="line"/>
      <point x="57" y="50" type="line"/>
    </contour>
  </outline>
</glyph>
<glyph name="backslash" format="2">
  <advance width="311"/>
  <unicode hex="005C"/>
  <outline>
    <contour>
      <point x="257" y="-160" type="line"/>
      <point x="168" y="710" type="line"/>
      <point x="112" y="710" type="line"/>
      <point x="201" y="-160" type="line"/>
    </contour>
  </outline>
</glyph>
<glyph name="bracketright" format="2">
  <advance width="324"/>
  <unicode hex="005D"/>
  <outline>
    <contour>
      <point x="333" y="715" type="curve"/>
      <point x="257" y="715" type="line"/>
      <point x="240" y="610"/>
      <point x="219" y="503"/>
      <point x="198" y="398" type="curve" smooth="yes"/>
      <point x="152" y="158" type="line" smooth="yes"/>
      <point x="131" y="51"/>
      <point x="110" y="-56"/>
      <point x="87" y="-159" type="curve"/>
      <point x="163" y="-159" type="line"/>
      <point x="181" y="-54"/>
      <point x="201" y="53"/>
      <point x="222" y="158" type="curve" smooth="yes"/>
      <point x="268" y="398" type="line" smooth="yes"/>
      <point x="289" y="505"/>
      <point x="310" y="612"/>
    </contour>
    <contour>
      <point x="285" y="715" type="line"/>
      <point x="145" y="715" type="line"/>
      <point x="137" y="675" type="line"/>
      <point x="264" y="660" type="line"/>
      <point x="274" y="660" type="line"/>
    </contour>
    <contour>
      <point x="126" y="-104" type="line"/>
      <point x="116" y="-104" type="line"/>
      <point x="-17" y="-119" type="line"/>
      <point x="-25" y="-159" type="line"/>
      <point x="115" y="-159" type="line"/>
    </contour>
  </outline>
</glyph>
<glyph name="asciicircum" format="2">
  <advance width="530"/>
  <unicode hex="005E"/>
  <outline>
    <contour>
      <point x="113" y="243" type="line"/>
      <point x="157" y="211" type="line"/>
      <point x="307" y="448" type="line"/>
      <point x="274" y="448" type="line"/>
      <point x="424" y="211" type="line"/>
      <point x="468" y="243" type="line"/>
      <point x="322" y="480" type="line"/>
      <point x="259" y="480" type="line"/>
    </contour>
  </outline>
</glyph>
<glyph name="grave" format="2">
  <advance width="400"/>
  <unicode hex="0060"/>
  <anchor x="348" y="506" name="_aboveLC"/>
  <anchor x="398" y="741" name="aboveLC"/>
  <outline>
    <contour>
      <point x="368" y="549" type="line"/>
      <point x="343" y="605"/>
      <point x="318" y="661"/>
      <point x="293" y="717" type="curve" smooth="yes"/>
      <point x="281" y="743"/>
      <point x="265" y="761"/>
      <point x="243" y="761" type="curve" smooth="yes"/>
      <point x="223" y="761"/>
      <point x="205" y="748"/>
      <point x="205" y="727" type="curve" smooth="yes"/>
      <point x="205" y="710"/>
      <point x="210" y="696"/>
      <point x="226" y="677" type="curve" smooth="yes"/>
      <point x="266" y="629"/>
      <point x="305" y="582"/>
      <point x="345" y="534" type="curve"/>
    </contour>
  </outline>
</glyph>
<glyph name="o" format="2">
  <advance width="487"/>
  <unicode hex="006F"/>
  <anchor x="317" y="506" name="aboveLC"/>
  <anchor x="202" y="-22" name="belowLC"/>
  <anchor x="416" y="480" name="hornLC"/>
  <anchor x="276" y="0" name="ogonek"/>
  <outline>
    <contour>
      <point x="220" y="-13" type="curve" smooth="yes"/>
      <point x="360" y="-13"/>
      <point x="476" y="138"/>
      <point x="476" y="312" type="curve" smooth="yes"/>
      <point x="476" y="425"/>
      <point x="408" y="487"/>
      <point x="314" y="487" type="curve" smooth="yes"/>
      <point x="173" y="487"/>
      <point x="54" y="343"/>
      <point x="54" y="163" type="curve" smooth="yes"/>
      <point x="54" y="49"/>
      <point x="128" y="-13"/>
    </contour>
    <contour>
      <point x="231" y="27" type="curve" smooth="yes"/>
      <point x="175" y="27"/>
      <point x="134" y="70"/>
      <point x="134" y="176" type="curve" smooth="yes"/>
      <point x="134" y="325"/>
      <point x="208" y="447"/>
      <point x="303" y="447" type="curve" smooth="yes"/>
      <point x="358" y="447"/>
      <point x="396" y="405"/>
      <point x="396" y="296" type="curve" smooth="yes"/>
      <point x="396" y="162"/>
      <point x="330" y="27"/>
    </contour>
  </outline>
</glyph>
<glyph name="bar" format="2">
  <advance width="250"/>
  <unicode hex="007C"/>
  <outline>
    <contour>
      <point x="113" y="-250" type="line"/>
      <point x="169" y="-250" type="line"/>
      <point x="169" y="750" type="line"/>
      <point x="113" y="750" type="line"/>
    </contour>
  </outline>
</glyph>
<glyph name="braceright" format="2">
  <advance width="380"/>
  <unicode hex="007D"/>
  <outline>
    <contour>
      <point x="356" y="298" type="line"/>
      <point x="286" y="307"/>
      <point x="256" y="332"/>
      <point x="256" y="372" type="curve" smooth="yes"/>
      <point x="256" y="437"/>
      <point x="322" y="536"/>
      <point x="322" y="624" type="curve" smooth="yes"/>
      <point x="322" y="684"/>
      <point x="278" y="715"/>
      <point x="197" y="715" type="curve" smooth="yes"/>
      <point x="145" y="715" type="line"/>
      <point x="137" y="676" type="line"/>
      <point x="170" y="673" type="line" smooth="yes"/>
      <point x="228" y="668"/>
      <point x="254" y="654"/>
      <point x="254" y="616" type="curve" smooth="yes"/>
      <point x="254" y="556"/>
      <point x="207" y="418"/>
      <point x="207" y="363" type="curve" smooth="yes"/>
      <point x="207" y="309"/>
      <point x="240" y="275"/>
      <point x="317" y="273" type="curve"/>
      <point x="319" y="283" type="line"/>
      <point x="228" y="281"/>
      <point x="161" y="229"/>
      <point x="161" y="145" type="curve" smooth="yes"/>
      <point x="161" y="114"/>
      <point x="164" y="49"/>
      <point x="164" y="9" type="curve" smooth="yes"/>
      <point x="164" y="-82"/>
      <point x="140" y="-114"/>
      <point x="30" y="-119" type="curve" smooth="yes"/>
      <point x="7" y="-120" type="line"/>
      <point x="0" y="-159" type="line"/>
      <point x="39" y="-159" type="line" smooth="yes"/>
      <point x="176" y="-159"/>
      <point x="231" y="-103"/>
      <point x="231" y="4" type="curve" smooth="yes"/>
      <point x="231" y="53"/>
      <point x="216" y="103"/>
      <point x="216" y="136" type="curve" smooth="yes"/>
      <point x="216" y="204"/>
      <point x="252" y="246"/>
      <point x="348" y="258" type="curve"/>
    </contour>
  </outline>
</glyph>
<glyph name="exclamdown" format="2">
  <advance width="290"/>
  <unicode hex="00A1"/>
  <outline>
    <contour>
      <point x="184" y="279" type="line"/>
      <point x="151" y="279" type="line"/>
      <point x="56" y="-36"/>
      <point x="28" y="-116"/>
      <point x="28" y="-163" type="curve" smooth="yes"/>
      <point x="28" y="-193"/>
      <point x="42" y="-208"/>
      <point x="72" y="-208" type="curve" smooth="yes"/>
      <point x="100" y="-208"/>
      <point x="123" y="-193"/>
      <point x="135" y="-132" type="curve" smooth="yes"/>
      <point x="140" y="-104"/>
      <point x="151" y="-14"/>
      <point x="165" y="121" type="curve" smooth="yes"/>
    </contour>
    <contour>
      <point x="259" y="430" type="curve" smooth="yes"/>
      <point x="259" y="464"/>
      <point x="234" y="488"/>
      <point x="203" y="488" type="curve" smooth="yes"/>
      <point x="166" y="488"/>
      <point x="133" y="457"/>
      <point x="133" y="420" type="curve" smooth="yes"/>
      <point x="133" y="388"/>
      <point x="155" y="361"/>
      <point x="189" y="361" type="curve" smooth="yes"/>
      <point x="226" y="361"/>
      <point x="259" y="392"/>
    </contour>
  </outline>
</glyph>
<glyph name="dieresis" format="2">
  <advance width="400"/>
  <unicode hex="00A8"/>
  <anchor x="268" y="506" name="_aboveLC"/>
  <anchor x="309" y="700" name="aboveLC"/>
  <outline>
    <contour>
      <point x="197" y="625" type="curve" smooth="yes"/>
      <point x="227" y="625"/>
      <point x="252" y="649"/>
      <point x="252" y="683" type="curve" smooth="yes"/>
      <point x="252" y="708"/>
      <point x="233" y="727"/>
      <point x="207" y="727" type="curve" smooth="yes"/>
      <point x="179" y="727"/>
      <point x="152" y="704"/>
      <point x="152" y="670" type="curve" smooth="yes"/>
      <point x="152" y="642"/>
      <point x="173" y="625"/>
    </contour>
    <contour>
      <point x="390" y="625" type="curve" smooth="yes"/>
      <point x="420" y="625"/>
      <point x="445" y="649"/>
      <point x="445" y="683" type="curve" smooth="yes"/>
      <point x="445" y="708"/>
      <point x="426" y="727"/>
      <point x="400" y="727" type="curve" smooth="yes"/>
      <point x="373" y="727"/>
      <point x="346" y="704"/>
      <point x="346" y="670" type="curve" smooth="yes"/>
      <point x="346" y="642"/>
      <point x="367" y="625"/>
    </contour>
  </outline>
</glyph>
<glyph name="guillemotleft" format="2">
  <advance width="551"/>
  <unicode hex="00AB"/>
  <outline>
    <contour>
      <point x="250" y="51" type="line"/>
      <point x="278" y="78" type="line"/>
      <point x="133" y="272" type="line"/>
      <point x="126" y="233" type="line"/>
      <point x="330" y="424" type="line"/>
      <point x="308" y="454" type="line"/>
      <point x="83" y="279" type="line"/>
      <point x="74" y="226" type="line"/>
    </contour>
    <contour>
      <point x="452" y="51" type="line"/>
      <point x="480" y="78" type="line"/>
      <point x="335" y="272" type="line"/>
      <point x="328" y="233" type="line"/>
      <point x="532" y="424" type="line"/>
      <point x="510" y="454" type="line"/>
      <point x="285" y="279" type="line"/>
      <point x="276" y="226" type="line"/>
    </contour>
  </outline>
</glyph>
<glyph name="logicalnot" format="2">
  <advance width="530"/>
  <unicode hex="00AC"/>
  <outline>
    <contour>
      <point x="54" y="340" type="line"/>
      <point x="457" y="340" type="line"/>
      <point x="441" y="359" type="line"/>
      <point x="441" y="167" type="line"/>
      <point x="498" y="167" type="line"/>
      <point x="498" y="393" type="line"/>
      <point x="54" y="393" type="line"/>
    </contour>
  </outline>
</glyph>
<glyph name="macron" format="2">
  <advance width="400"/>
  <unicode hex="00AF"/>
  <anchor x="278" y="520" name="_aboveLC"/>
  <anchor x="313" y="684" name="aboveLC"/>
  <outline>
    <contour>
      <point x="173" y="613" type="line"/>
      <point x="413" y="613" type="line"/>
      <point x="425" y="674" type="line"/>
      <point x="185" y="674" type="line"/>
    </contour>
  </outline>
</glyph>
<glyph name="acute" format="2">
  <advance width="400"/>
  <unicode hex="00B4"/>
  <anchor x="227" y="506" name="_aboveLC"/>
  <anchor x="281" y="759" name="aboveLC"/>
  <outline>
    <contour>
      <point x="220" y="549" type="curve"/>
      <point x="243" y="534" type="line"/>
      <point x="283" y="582"/>
      <point x="322" y="629"/>
      <point x="362" y="677" type="curve" smooth="yes"/>
      <point x="378" y="696"/>
      <point x="383" y="710"/>
      <point x="383" y="725" type="curve" smooth="yes"/>
      <point x="383" y="748"/>
      <point x="366" y="759"/>
      <point x="345" y="759" type="curve" smooth="yes"/>
      <point x="323" y="759"/>
      <point x="307" y="743"/>
      <point x="295" y="717" type="curve" smooth="yes"/>
      <point x="270" y="661"/>
      <point x="245" y="605"/>
    </contour>
  </outline>
</glyph>
<glyph name="cedilla" format="2">
  <advance width="400"/>
  <unicode hex="00B8"/>
  <anchor x="148" y="0" name="_baseLC"/>
  <outline>
    <contour>
      <point x="95" y="-87" type="line"/>
      <point x="142" y="-99"/>
      <point x="169" y="-115"/>
      <point x="169" y="-152" type="curve" smooth="yes"/>
      <point x="169" y="-182"/>
      <point x="146" y="-199"/>
      <point x="111" y="-199" type="curve" smooth="yes"/>
      <point x="86" y="-199"/>
      <point x="67" y="-193"/>
      <point x="45" y="-183" type="curve"/>
      <point x="34" y="-208" type="line"/>
      <point x="55" y="-221"/>
      <point x="89" y="-231"/>
      <point x="123" y="-231" type="curve" smooth="yes"/>
      <point x="187" y="-231"/>
      <point x="226" y="-197"/>
      <point x="226" y="-157" type="curve" smooth="yes"/>
      <point x="226" y="-110"/>
      <point x="192" y="-89"/>
      <point x="124" y="-65" type="curve"/>
      <point x="126" y="-86" type="line"/>
      <point x="166" y="0" type="line"/>
      <point x="138" y="0" type="line"/>
    </contour>
  </outline>
</glyph>
<glyph name="onehalf" format="2">
  <advance width="870"/>
  <unicode hex="00BD"/>
  <outline>
    <contour>
      <point x="230" y="-15" type="line"/>
      <point x="727" y="641" type="line"/>
      <point x="694" y="666" type="line"/>
      <point x="197" y="10" type="line"/>
    </contour>
    <contour>
      <point x="308" y="254" type="line"/>
      <point x="313" y="280" type="line"/>
      <point x="217" y="291" type="line"/>
      <point x="176" y="291" type="line"/>
      <point x="80" y="280" type="line"/>
      <point x="74" y="254" type="line"/>
    </contour>
    <contour>
      <point x="220" y="254" type="line"/>
      <point x="285" y="565" type="line"/>
      <point x="306" y="654" type="line"/>
      <point x="299" y="660" type="line"/>
      <point x="152" y="625" type="line"/>
      <point x="146" y="599" type="line"/>
      <point x="243" y="605" type="line"/>
      <point x="228" y="622" type="line"/>
      <point x="154" y="254" type="line"/>
    </contour>
    <contour>
      <point x="535" y="0" type="line"/>
      <point x="786" y="0" type="line"/>
      <point x="799" y="62" type="line"/>
      <point x="589" y="62" type="line"/>
      <point x="593" y="55" type="line"/>
      <point x="777" y="209"/>
      <point x="834" y="247"/>
      <point x="834" y="312" type="curve" smooth="yes"/>
      <point x="834" y="366"/>
      <point x="800" y="406"/>
      <point x="725" y="406" type="curve" smooth="yes"/>
      <point x="652" y="406"/>
      <point x="601" y="378"/>
      <point x="583" y="301" type="curve"/>
      <point x="585" y="281"/>
      <point x="597" y="269"/>
      <point x="614" y="269" type="curve" smooth="yes"/>
      <point x="636" y="269"/>
      <point x="649" y="281"/>
      <point x="652" y="323" type="curve" smooth="yes"/>
      <point x="657" y="385" type="line"/>
      <point x="628" y="345" type="line"/>
      <point x="648" y="366"/>
      <point x="673" y="374"/>
      <point x="699" y="374" type="curve" smooth="yes"/>
      <point x="740" y="374"/>
      <point x="763" y="352"/>
      <point x="763" y="308" type="curve" smooth="yes"/>
      <point x="763" y="260"/>
      <point x="732" y="217"/>
      <point x="544" y="47" type="curve"/>
    </contour>
  </outline>
</glyph>
<glyph name="threequarters" format="2">
  <advance width="870"/>
  <unicode hex="00BE"/>
  <outline>
    <contour>
      <point x="260" y="-15" type="line"/>
      <point x="757" y="641" type="line"/>
      <point x="724" y="666" type="line"/>
      <point x="227" y="10" type="line"/>
    </contour>
    <contour>
      <point x="186" y="245" type="curve" smooth="yes"/>
      <point x="271" y="245"/>
      <point x="339" y="289"/>
      <point x="339" y="361" type="curve" smooth="yes"/>
      <point x="339" y="419"/>
      <point x="304" y="451"/>
      <point x="228" y="459" type="curve"/>
      <point x="226" y="450" type="line"/>
      <point x="308" y="462"/>
      <point x="358" y="507"/>
      <point x="358" y="567" type="curve" smooth="yes"/>
      <point x="358" y="619"/>
      <point x="322" y="660"/>
      <point x="247" y="660" type="curve" smooth="yes"/>
      <point x="176" y="660"/>
      <point x="130" y="625"/>
      <point x="122" y="564" type="curve"/>
      <point x="126" y="552"/>
      <point x="139" y="543"/>
      <point x="152" y="543" type="curve" smooth="yes"/>
      <point x="171" y="543"/>
      <point x="184" y="557"/>
      <point x="187" y="583" type="curve" smooth="yes"/>
      <point x="195" y="641" type="line"/>
      <point x="171" y="615" type="line"/>
      <point x="190" y="625"/>
      <point x="211" y="630"/>
      <point x="231" y="630" type="curve" smooth="yes"/>
      <point x="267" y="630"/>
      <point x="293" y="610"/>
      <point x="293" y="564" type="curve" smooth="yes"/>
      <point x="293" y="500"/>
      <point x="246" y="469"/>
      <point x="176" y="469" type="curve"/>
      <point x="171" y="439" type="line"/>
      <point x="239" y="439"/>
      <point x="268" y="415"/>
      <point x="268" y="366" type="curve" smooth="yes"/>
      <point x="268" y="305"/>
      <point x="225" y="275"/>
      <point x="177" y="275" type="curve" smooth="yes"/>
      <point x="151" y="275"/>
      <point x="131" y="281"/>
      <point x="111" y="294" type="curve"/>
      <point x="136" y="268" type="line"/>
      <point x="135" y="328" type="line" smooth="yes"/>
      <point x="134" y="360"/>
      <point x="123" y="373"/>
      <point x="103" y="373" type="curve" smooth="yes"/>
      <point x="90" y="373"/>
      <point x="79" y="366"/>
      <point x="72" y="350" type="curve"/>
      <point x="72" y="276"/>
      <point x="117" y="245"/>
    </contour>
    <contour>
      <point x="815" y="99" type="line"/>
      <point x="824" y="146" type="line"/>
      <point x="552" y="146" type="line"/>
      <point x="553" y="136" type="line"/>
      <point x="753" y="354" type="line"/>
      <point x="740" y="354" type="line"/>
      <point x="665" y="-13" type="line"/>
      <point x="726" y="-13" type="line"/>
      <point x="810" y="402" type="line"/>
      <point x="761" y="402" type="line"/>
      <point x="523" y="144" type="line"/>
      <point x="514" y="99" type="line"/>
    </contour>
  </outline>
</glyph>
<glyph name="Agrave" format="2">
  <advance width="676"/>
  <unicode hex="00C0"/>
  <anchor x="480" y="877" name="aboveUC"/>
  <anchor x="282" y="-22" name="belowLC"/>
  <anchor x="526" y="0" name="ogonek"/>
  <outline>
    <contour>
      <point x="-29" y="0" type="line"/>
      <point x="195" y="0" type="line"/>
      <point x="203" y="40" type="line"/>
      <point x="104" y="55" type="line"/>
      <point x="86" y="55" type="line"/>
      <point x="-21" y="40" type="line"/>
    </contour>
    <contour>
      <point x="33" y="0" type="line"/>
      <point x="88" y="0" type="line"/>
      <point x="403" y="595" type="line"/>
      <point x="389" y="595" type="line"/>
      <point x="469" y="0" type="line"/>
      <point x="557" y="0" type="line"/>
      <point x="463" y="670" type="line"/>
      <point x="406" y="670" type="line"/>
    </contour>
    <contour>
      <point x="195" y="244" type="line"/>
      <point x="481" y="244" type="line"/>
      <point x="494" y="290" type="line"/>
      <point x="209" y="290" type="line"/>
    </contour>
    <contour>
      <point x="367" y="0" type="line"/>
      <point x="631" y="0" type="line"/>
      <point x="639" y="40" type="line"/>
      <point x="520" y="55" type="line"/>
      <point x="502" y="55" type="line"/>
      <point x="375" y="40" type="line"/>
    </contour>
    <contour>
      <point x="480" y="746" type="line"/>
      <point x="450" y="777"/>
      <point x="419" y="808"/>
      <point x="387" y="839" type="curve" smooth="yes"/>
      <point x="359" y="867"/>
      <point x="342" y="877"/>
      <point x="325" y="877" type="curve" smooth="yes"/>
      <point x="305" y="877"/>
      <point x="288" y="864"/>
      <point x="288" y="844" type="curve" smooth="yes"/>
      <point x="288" y="826"/>
      <point x="301" y="809"/>
      <point x="338" y="789" type="curve" smooth="yes"/>
      <point x="378" y="767"/>
      <point x="420" y="744"/>
      <point x="462" y="722" type="curve"/>
    </contour>
  </outline>
</glyph>
<glyph name="Aacute" format="2">
  <advance width="676"/>
  <unicode hex="00C1"/>
  <anchor x="496" y="867" name="aboveUC"/>
  <anchor x="282" y="-22" name="belowLC"/>
  <anchor x="526" y="0" name="ogonek"/>
  <outline>
    <contour>
      <point x="-29" y="0" type="line"/>
      <point x="195" y="0" type="line"/>
      <point x="203" y="40" type="line"/>
      <point x="104" y="55" type="line"/>
      <point x="86" y="55" type="line"/>
      <point x="-21" y="40" type="line"/>
    </contour>
    <contour>
      <point x="33" y="0" type="line"/>
      <point x="88" y="0" type="line"/>
      <point x="403" y="595" type="line"/>
      <point x="389" y="595" type="line"/>
      <point x="469" y="0" type="line"/>
      <point x="557" y="0" type="line"/>
      <point x="463" y="670" type="line"/>
      <point x="406" y="670" type="line"/>
    </contour>
    <contour>
      <point x="195" y="244" type="line"/>
      <point x="481" y="244" type="line"/>
      <point x="494" y="290" type="line"/>
      <point x="209" y="290" type="line"/>
    </contour>
    <contour>
      <point x="367" y="0" type="line"/>
      <point x="631" y="0" type="line"/>
      <point x="639" y="40" type="line"/>
      <point x="520" y="55" type="line"/>
      <point x="502" y="55" type="line"/>
      <point x="375" y="40" type="line"/>
    </contour>
    <contour>
      <point x="398" y="735" type="curve"/>
      <point x="411" y="713" type="line"/>
      <point x="461" y="735"/>
      <point x="511" y="757"/>
      <point x="561" y="779" type="curve" smooth="yes"/>
      <point x="609" y="801"/>
      <point x="615" y="816"/>
      <point x="615" y="833" type="curve" smooth="yes"/>
      <point x="615" y="854"/>
      <point x="598" y="867"/>
      <point x="579" y="867" type="curve" smooth="yes"/>
      <point x="554" y="867"/>
      <point x="544" y="857"/>
      <point x="511" y="830" type="curve" smooth="yes"/>
      <point x="473" y="798"/>
      <point x="436" y="767"/>
    </contour>
  </outline>
</glyph>
<glyph name="Acircumflex" format="2">
  <advance width="676"/>
  <unicode hex="00C2"/>
  <anchor x="461" y="866" name="aboveUC"/>
  <anchor x="282" y="-22" name="belowLC"/>
  <anchor x="526" y="0" name="ogonek"/>
  <outline>
    <contour>
      <point x="-29" y="0" type="line"/>
      <point x="195" y="0" type="line"/>
      <point x="203" y="40" type="line"/>
      <point x="104" y="55" type="line"/>
      <point x="86" y="55" type="line"/>
      <point x="-21" y="40" type="line"/>
    </contour>
    <contour>
      <point x="33" y="0" type="line"/>
      <point x="88" y="0" type="line"/>
      <point x="403" y="595" type="line"/>
      <point x="389" y="595" type="line"/>
      <point x="469" y="0" type="line"/>
      <point x="557" y="0" type="line"/>
      <point x="463" y="670" type="line"/>
      <point x="406" y="670" type="line"/>
    </contour>
    <contour>
      <point x="195" y="244" type="line"/>
      <point x="481" y="244" type="line"/>
      <point x="494" y="290" type="line"/>
      <point x="209" y="290" type="line"/>
    </contour>
    <contour>
      <point x="367" y="0" type="line"/>
      <point x="631" y="0" type="line"/>
      <point x="639" y="40" type="line"/>
      <point x="520" y="55" type="line"/>
      <point x="502" y="55" type="line"/>
      <point x="375" y="40" type="line"/>
    </contour>
    <contour>
      <point x="473" y="856" type="line"/>
      <point x="441" y="856" type="line"/>
      <point x="290" y="737" type="line"/>
      <point x="304" y="713" type="line"/>
      <point x="493" y="820" type="line"/>
      <point x="409" y="820" type="line"/>
      <point x="568" y="713" type="line"/>
      <point x="592" y="737" type="line"/>
    </contour>
  </outline>
</glyph>
<glyph name="Atilde" format="2">
  <advance width="676"/>
  <unicode hex="00C3"/>
  <anchor x="470" y="873" name="aboveUC"/>
  <anchor x="282" y="-22" name="belowLC"/>
  <anchor x="526" y="0" name="ogonek"/>
  <outline>
    <contour>
      <point x="-29" y="0" type="line"/>
      <point x="195" y="0" type="line"/>
      <point x="203" y="40" type="line"/>
      <point x="104" y="55" type="line"/>
      <point x="86" y="55" type="line"/>
      <point x="-21" y="40" type="line"/>
    </contour>
    <contour>
      <point x="33" y="0" type="line"/>
      <point x="88" y="0" type="line"/>
      <point x="403" y="595" type="line"/>
      <point x="389" y="595" type="line"/>
      <point x="469" y="0" type="line"/>
      <point x="557" y="0" type="line"/>
      <point x="463" y="670" type="line"/>
      <point x="406" y="670" type="line"/>
    </contour>
    <contour>
      <point x="195" y="244" type="line"/>
      <point x="481" y="244" type="line"/>
      <point x="494" y="290" type="line"/>
      <point x="209" y="290" type="line"/>
    </contour>
    <contour>
      <point x="367" y="0" type="line"/>
      <point x="631" y="0" type="line"/>
      <point x="639" y="40" type="line"/>
      <point x="520" y="55" type="line"/>
      <point x="502" y="55" type="line"/>
      <point x="375" y="40" type="line"/>
    </contour>
    <contour>
      <point x="262" y="735" type="curve"/>
      <point x="289" y="726" type="line"/>
      <point x="315" y="786"/>
      <point x="340" y="807"/>
      <point x="373" y="807" type="curve" smooth="yes"/>
      <point x="403" y="807"/>
      <point x="419" y="779"/>
      <point x="440" y="758" type="curve" smooth="yes"/>
      <point x="459" y="740"/>
      <point x="479" y="724"/>
      <point x="516" y="724" type="curve" smooth="yes"/>
      <point x="578" y="724"/>
      <point x="616" y="765"/>
      <point x="644" y="852" type="curve"/>
      <point x="616" y="861" type="line"/>
      <point x="591" y="801"/>
      <point x="566" y="780"/>
      <point x="532" y="780" type="curve" smooth="yes"/>
      <point x="502" y="780"/>
      <point x="487" y="808"/>
      <point x="465" y="829" type="curve" smooth="yes"/>
      <point x="446" y="847"/>
      <point x="427" y="863"/>
      <point x="390" y="863" type="curve" smooth="yes"/>
      <point x="329" y="863"/>
      <point x="288" y="822"/>
    </contour>
  </outline>
</glyph>
<glyph name="Adieresis" format="2">
  <advance width="676"/>
  <unicode hex="00C4"/>
  <anchor x="453" y="861" name="aboveUC"/>
  <anchor x="282" y="-22" name="belowLC"/>
  <anchor x="526" y="0" name="ogonek"/>
  <outline>
    <contour>
      <point x="-29" y="0" type="line"/>
      <point x="195" y="0" type="line"/>
      <point x="203" y="40" type="line"/>
      <point x="104" y="55" type="line"/>
      <point x="86" y="55" type="line"/>
      <point x="-21" y="40" type="line"/>
    </contour>
    <contour>
      <point x="33" y="0" type="line"/>
      <point x="88" y="0" type="line"/>
      <point x="403" y="595" type="line"/>
      <point x="389" y="595" type="line"/>
      <point x="469" y="0" type="line"/>
      <point x="557" y="0" type="line"/>
      <point x="463" y="670" type="line"/>
      <point x="406" y="670" type="line"/>
    </contour>
    <contour>
      <point x="195" y="244" type="line"/>
      <point x="481" y="244" type="line"/>
      <point x="494" y="290" type="line"/>
      <point x="209" y="290" type="line"/>
    </contour>
    <contour>
      <point x="367" y="0" type="line"/>
      <point x="631" y="0" type="line"/>
      <point x="639" y="40" type="line"/>
      <point x="520" y="55" type="line"/>
      <point x="502" y="55" type="line"/>
      <point x="375" y="40" type="line"/>
    </contour>
    <contour>
      <point x="321" y="749" type="curve" smooth="yes"/>
      <point x="351" y="749"/>
      <point x="376" y="773"/>
      <point x="376" y="807" type="curve" smooth="yes"/>
      <point x="376" y="832"/>
      <point x="357" y="851"/>
      <point x="331" y="851" type="curve" smooth="yes"/>
      <point x="303" y="851"/>
      <point x="276" y="828"/>
      <point x="276" y="794" type="curve" smooth="yes"/>
      <point x="276" y="766"/>
      <point x="297" y="749"/>
    </contour>
    <contour>
      <point x="539" y="749" type="curve" smooth="yes"/>
      <point x="570" y="749"/>
      <point x="595" y="773"/>
      <point x="595" y="807" type="curve" smooth="yes"/>
      <point x="595" y="832"/>
      <point x="576" y="851"/>
      <point x="550" y="851" type="curve" smooth="yes"/>
      <point x="522" y="851"/>
      <point x="496" y="828"/>
      <point x="496" y="794" type="curve" smooth="yes"/>
      <point x="496" y="766"/>
      <point x="517" y="749"/>
    </contour>
  </outline>
</glyph>
<glyph name="Aring" format="2">
  <advance width="676"/>
  <unicode hex="00C5"/>
  <anchor x="473" y="908" name="aboveUC"/>
  <anchor x="282" y="-22" name="belowLC"/>
  <anchor x="526" y="0" name="ogonek"/>
  <outline>
    <contour>
      <point x="-29" y="0" type="line"/>
      <point x="195" y="0" type="line"/>
      <point x="203" y="40" type="line"/>
      <point x="104" y="55" type="line"/>
      <point x="86" y="55" type="line"/>
      <point x="-21" y="40" type="line"/>
    </contour>
    <contour>
      <point x="33" y="0" type="line"/>
      <point x="88" y="0" type="line"/>
      <point x="403" y="595" type="line"/>
      <point x="389" y="595" type="line"/>
      <point x="469" y="0" type="line"/>
      <point x="557" y="0" type="line"/>
      <point x="463" y="670" type="line"/>
      <point x="406" y="670" type="line"/>
    </contour>
    <contour>
      <point x="195" y="244" type="line"/>
      <point x="481" y="244" type="line"/>
      <point x="494" y="290" type="line"/>
      <point x="209" y="290" type="line"/>
    </contour>
    <contour>
      <point x="367" y="0" type="line"/>
      <point x="631" y="0" type="line"/>
      <point x="639" y="40" type="line"/>
      <point x="520" y="55" type="line"/>
      <point x="502" y="55" type="line"/>
      <point x="375" y="40" type="line"/>
    </contour>
    <contour>
      <point x="442" y="713" type="curve" smooth="yes"/>
      <point x="494" y="713"/>
      <point x="546" y="752"/>
      <point x="546" y="816" type="curve" smooth="yes"/>
      <point x="546" y="868"/>
      <point x="509" y="898"/>
      <point x="458" y="898" type="curve" smooth="yes"/>
      <point x="408" y="898"/>
      <point x="353" y="861"/>
      <point x="353" y="795" type="curve" smooth="yes"/>
      <point x="353" y="744"/>
      <point x="394" y="713"/>
    </contour>
    <contour>
      <point x="446" y="746" type="curve" smooth="yes"/>
      <point x="413" y="746"/>
      <point x="394" y="769"/>
      <point x="394" y="799" type="curve" smooth="yes"/>
      <point x="394" y="836"/>
      <point x="422" y="865"/>
      <point x="457" y="865" type="curve" smooth="yes"/>
      <point x="491" y="865"/>
      <point x="505" y="840"/>
      <point x="505" y="813" type="curve" smooth="yes"/>
      <point x="505" y="778"/>
      <point x="482" y="746"/>
    </contour>
  </outline>
</glyph>
<glyph name="Ccedilla" format="2">
  <advance width="593"/>
  <unicode hex="00C7"/>
  <anchor x="439" y="691" name="aboveUC"/>
  <anchor x="342" y="0" name="baseLC"/>
  <anchor x="319" y="-22" name="belowLC"/>
  <outline>
    <contour>
      <point x="330" y="-15" type="curve" smooth="yes"/>
      <point x="415" y="-15"/>
      <point x="471" y="7"/>
      <point x="524" y="30" type="curve"/>
      <point x="552" y="175" type="line"/>
      <point x="493" y="175" type="line"/>
      <point x="445" y="30" type="line"/>
      <point x="501" y="71" type="line"/>
      <point x="459" y="50"/>
      <point x="412" y="35"/>
      <point x="363" y="35" type="curve" smooth="yes"/>
      <point x="247" y="35"/>
      <point x="148" y="116"/>
      <point x="148" y="285" type="curve" smooth="yes"/>
      <point x="148" y="475"/>
      <point x="269" y="635"/>
      <point x="430" y="635" type="curve" smooth="yes"/>
      <point x="479" y="635"/>
      <point x="535" y="620"/>
      <point x="570" y="592" type="curve"/>
      <point x="529" y="632" type="line"/>
      <point x="529" y="493" type="line"/>
      <point x="585" y="493" type="line"/>
      <point x="608" y="632" type="line"/>
      <point x="546" y="672"/>
      <point x="493" y="685"/>
      <point x="440" y="685" type="curve" smooth="yes"/>
      <point x="232" y="685"/>
      <point x="58" y="502"/>
      <point x="58" y="281" type="curve" smooth="yes"/>
      <point x="58" y="104"/>
      <point x="163" y="-15"/>
    </contour>
    <contour>
      <point x="269" y="-87" type="line"/>
      <point x="316" y="-99"/>
      <point x="343" y="-115"/>
      <point x="343" y="-152" type="curve" smooth="yes"/>
      <point x="343" y="-182"/>
      <point x="320" y="-199"/>
      <point x="285" y="-199" type="curve" smooth="yes"/>
      <point x="260" y="-199"/>
      <point x="241" y="-193"/>
      <point x="219" y="-183" type="curve"/>
      <point x="208" y="-208" type="line"/>
      <point x="229" y="-221"/>
      <point x="263" y="-231"/>
      <point x="297" y="-231" type="curve" smooth="yes"/>
      <point x="361" y="-231"/>
      <point x="400" y="-197"/>
      <point x="400" y="-157" type="curve" smooth="yes"/>
      <point x="400" y="-110"/>
      <point x="366" y="-89"/>
      <point x="298" y="-65" type="curve"/>
      <point x="300" y="-86" type="line"/>
      <point x="340" y="0" type="line"/>
      <point x="312" y="0" type="line"/>
    </contour>
  </outline>
</glyph>
<glyph name="Egrave" format="2">
  <advance width="587"/>
  <unicode hex="00C8"/>
  <anchor x="437" y="877" name="aboveUC"/>
  <anchor x="308" y="-22" name="belowLC"/>
  <anchor x="425" y="0" name="ogonek"/>
  <outline>
    <contour>
      <point x="16" y="0" type="line"/>
      <point x="142" y="0" type="line"/>
      <point x="152" y="55" type="line"/>
      <point x="146" y="55" type="line"/>
      <point x="24" y="40" type="line"/>
    </contour>
    <contour>
      <point x="101" y="0" type="line"/>
      <point x="189" y="0" type="line"/>
      <point x="205" y="103"/>
      <point x="223" y="207"/>
      <point x="242" y="310" type="curve" smooth="yes"/>
      <point x="310" y="670" type="line"/>
      <point x="222" y="670" type="line"/>
      <point x="206" y="567"/>
      <point x="188" y="463"/>
      <point x="169" y="360" type="curve" smooth="yes"/>
    </contour>
    <contour>
      <point x="122" y="630" type="line"/>
      <point x="243" y="615" type="line"/>
      <point x="255" y="615" type="line"/>
      <point x="266" y="670" type="line"/>
      <point x="130" y="670" type="line"/>
    </contour>
    <contour>
      <point x="142" y="0" type="line"/>
      <point x="515" y="0" type="line"/>
      <point x="554" y="178" type="line"/>
      <point x="504" y="178" type="line"/>
      <point x="441" y="0" type="line"/>
      <point x="496" y="50" type="line"/>
      <point x="152" y="50" type="line"/>
    </contour>
    <contour>
      <point x="204" y="319" type="line"/>
      <point x="429" y="319" type="line"/>
      <point x="437" y="365" type="line"/>
      <point x="213" y="365" type="line"/>
    </contour>
    <contour>
      <point x="256" y="620" type="line"/>
      <point x="550" y="620" type="line"/>
      <point x="518" y="670" type="line"/>
      <point x="518" y="492" type="line"/>
      <point x="568" y="492" type="line"/>
      <point x="592" y="670" type="line"/>
      <point x="266" y="670" type="line"/>
    </contour>
    <contour>
      <point x="397" y="224" type="line"/>
      <point x="439" y="224" type="line"/>
      <point x="484" y="461" type="line"/>
      <point x="442" y="461" type="line"/>
      <point x="404" y="355" type="line"/>
      <point x="401" y="335" type="line"/>
    </contour>
    <contour>
      <point x="437" y="746" type="line"/>
      <point x="407" y="777"/>
      <point x="376" y="808"/>
      <point x="344" y="839" type="curve" smooth="yes"/>
      <point x="316" y="867"/>
      <point x="299" y="877"/>
      <point x="282" y="877" type="curve" smooth="yes"/>
      <point x="262" y="877"/>
      <point x="245" y="864"/>
      <point x="245" y="844" type="curve" smooth="yes"/>
      <point x="245" y="826"/>
      <point x="258" y="809"/>
      <point x="295" y="789" type="curve" smooth="yes"/>
      <point x="335" y="767"/>
      <point x="377" y="744"/>
      <point x="419" y="722" type="curve"/>
    </contour>
  </outline>
</glyph>
<glyph name="Eacute" format="2">
  <advance width="587"/>
  <unicode hex="00C9"/>
  <anchor x="468" y="867" name="aboveUC"/>
  <anchor x="308" y="-22" name="belowLC"/>
  <anchor x="425" y="0" name="ogonek"/>
  <outline>
    <contour>
      <point x="16" y="0" type="line"/>
      <point x="142" y="0" type="line"/>
      <point x="152" y="55" type="line"/>
      <point x="146" y="55" type="line"/>
      <point x="24" y="40" type="line"/>
    </contour>
    <contour>
      <point x="101" y="0" type="line"/>
      <point x="189" y="0" type="line"/>
      <point x="205" y="103"/>
      <point x="223" y="207"/>
      <point x="242" y="310" type="curve" smooth="yes"/>
      <point x="310" y="670" type="line"/>
      <point x="222" y="670" type="line"/>
      <point x="206" y="567"/>
      <point x="188" y="463"/>
      <point x="169" y="360" type="curve" smooth="yes"/>
    </contour>
    <contour>
      <point x="122" y="630" type="line"/>
      <point x="243" y="615" type="line"/>
      <point x="255" y="615" type="line"/>
      <point x="266" y="670" type="line"/>
      <point x="130" y="670" type="line"/>
    </contour>
    <contour>
      <point x="142" y="0" type="line"/>
      <point x="515" y="0" type="line"/>
      <point x="554" y="178" type="line"/>
      <point x="504" y="178" type="line"/>
      <point x="441" y="0" type="line"/>
      <point x="496" y="50" type="line"/>
      <point x="152" y="50" type="line"/>
    </contour>
    <contour>
      <point x="204" y="319" type="line"/>
      <point x="429" y="319" type="line"/>
      <point x="437" y="365" type="line"/>
      <point x="213" y="365" type="line"/>
    </contour>
    <contour>
      <point x="256" y="620" type="line"/>
      <point x="550" y="620" type="line"/>
      <point x="518" y="670" type="line"/>
      <point x="518" y="492" type="line"/>
      <point x="568" y="492" type="line"/>
      <point x="592" y="670" type="line"/>
      <point x="266" y="670" type="line"/>
    </contour>
    <contour>
      <point x="397" y="224" type="line"/>
      <point x="439" y="224" type="line"/>
      <point x="484" y="461" type="line"/>
      <point x="442" y="461" type="line"/>
      <point x="404" y="355" type="line"/>
      <point x="401" y="335" type="line"/>
    </contour>
    <contour>
      <point x="370" y="735" type="curve"/>
      <point x="383" y="713" type="line"/>
      <point x="433" y="735"/>
      <point x="483" y="757"/>
      <point x="533" y="779" type="curve" smooth="yes"/>
      <point x="581" y="801"/>
      <point x="587" y="816"/>
      <point x="587" y="833" type="curve" smooth="yes"/>
      <point x="587" y="854"/>
      <point x="570" y="867"/>
      <point x="551" y="867" type="curve" smooth="yes"/>
      <point x="526" y="867"/>
      <point x="516" y="857"/>
      <point x="483" y="830" type="curve" smooth="yes"/>
      <point x="445" y="798"/>
      <point x="408" y="767"/>
    </contour>
  </outline>
</glyph>
<glyph name="Igrave" format="2">
  <advance width="357"/>
  <unicode hex="00CC"/>
  <anchor x="320" y="877" name="aboveUC"/>
  <anchor x="141" y="-22" name="belowLC"/>
  <anchor x="177" y="0" name="ogonek"/>
  <outline>
    <contour>
      <point x="16" y="0" type="line"/>
      <point x="280" y="0" type="line"/>
      <point x="288" y="40" type="line"/>
      <point x="169" y="55" type="line"/>
      <point x="151" y="55" type="line"/>
      <point x="24" y="40" type="line"/>
    </contour>
    <contour>
      <point x="101" y="0" type="line"/>
      <point x="189" y="0" type="line"/>
      <point x="205" y="103"/>
      <point x="223" y="207"/>
      <point x="242" y="310" type="curve" smooth="yes"/>
      <point x="310" y="670" type="line"/>
      <point x="222" y="670" type="line"/>
      <point x="206" y="567"/>
      <point x="188" y="463"/>
      <point x="169" y="360" type="curve" smooth="yes"/>
    </contour>
    <contour>
      <point x="122" y="630" type="line"/>
      <point x="243" y="615" type="line"/>
      <point x="262" y="615" type="line"/>
      <point x="386" y="630" type="line"/>
      <point x="394" y="670" type="line"/>
      <point x="130" y="670" type="line"/>
    </contour>
    <contour>
      <point x="320" y="746" type="line"/>
      <point x="290" y="777"/>
      <point x="259" y="808"/>
      <point x="227" y="839" type="curve" smooth="yes"/>
      <point x="199" y="867"/>
      <point x="182" y="877"/>
      <point x="165" y="877" type="curve" smooth="yes"/>
      <point x="145" y="877"/>
      <point x="128" y="864"/>
      <point x="128" y="844" type="curve" smooth="yes"/>
      <point x="128" y="826"/>
      <point x="141" y="809"/>
      <point x="178" y="789" type="curve" smooth="yes"/>
      <point x="218" y="767"/>
      <point x="260" y="744"/>
      <point x="302" y="722" type="curve"/>
    </contour>
  </outline>
</glyph>
<glyph name="Iacute" format="2">
  <advance width="357"/>
  <unicode hex="00CD"/>
  <anchor x="322" y="867" name="aboveUC"/>
  <anchor x="141" y="-22" name="belowLC"/>
  <anchor x="177" y="0" name="ogonek"/>
  <outline>
    <contour>
      <point x="16" y="0" type="line"/>
      <point x="280" y="0" type="line"/>
      <point x="288" y="40" type="line"/>
      <point x="169" y="55" type="line"/>
      <point x="151" y="55" type="line"/>
      <point x="24" y="40" type="line"/>
    </contour>
    <contour>
      <point x="101" y="0" type="line"/>
      <point x="189" y="0" type="line"/>
      <point x="205" y="103"/>
      <point x="223" y="207"/>
      <point x="242" y="310" type="curve" smooth="yes"/>
      <point x="310" y="670" type="line"/>
      <point x="222" y="670" type="line"/>
      <point x="206" y="567"/>
      <point x="188" y="463"/>
      <point x="169" y="360" type="curve" smooth="yes"/>
    </contour>
    <contour>
      <point x="122" y="630" type="line"/>
      <point x="243" y="615" type="line"/>
      <point x="262" y="615" type="line"/>
      <point x="386" y="630" type="line"/>
      <point x="394" y="670" type="line"/>
      <point x="130" y="670" type="line"/>
    </contour>
    <contour>
      <point x="224" y="735" type="curve"/>
      <point x="237" y="713" type="line"/>
      <point x="287" y="735"/>
      <point x="337" y="757"/>
      <point x="387" y="779" type="curve" smooth="yes"/>
      <point x="435" y="801"/>
      <point x="441" y="816"/>
      <point x="441" y="833" type="curve" smooth="yes"/>
      <point x="441" y="854"/>
      <point x="424" y="867"/>
      <point x="405" y="867" type="curve" smooth="yes"/>
      <point x="380" y="867"/>
      <point x="370" y="857"/>
      <point x="337" y="830" type="curve" smooth="yes"/>
      <point x="299" y="798"/>
      <point x="262" y="767"/>
    </contour>
  </outline>
</glyph>
<glyph name="Idieresis" format="2">
  <advance width="357"/>
  <unicode hex="00CF"/>
  <anchor x="266" y="691" name="aboveUC"/>
  <anchor x="141" y="-22" name="belowLC"/>
  <anchor x="177" y="0" name="ogonek"/>
  <outline>
    <contour>
      <point x="189" y="749" type="curve" smooth="yes"/>
      <point x="219" y="749"/>
      <point x="244" y="773"/>
      <point x="244" y="807" type="curve" smooth="yes"/>
      <point x="244" y="832"/>
      <point x="225" y="851"/>
      <point x="199" y="851" type="curve" smooth="yes"/>
      <point x="171" y="851"/>
      <point x="144" y="828"/>
      <point x="144" y="794" type="curve" smooth="yes"/>
      <point x="144" y="766"/>
      <point x="165" y="749"/>
    </contour>
    <contour>
      <point x="367" y="749" type="curve" smooth="yes"/>
      <point x="398" y="749"/>
      <point x="423" y="773"/>
      <point x="423" y="807" type="curve" smooth="yes"/>
      <point x="423" y="832"/>
      <point x="404" y="851"/>
      <point x="378" y="851" type="curve" smooth="yes"/>
      <point x="350" y="851"/>
      <point x="324" y="828"/>
      <point x="324" y="794" type="curve" smooth="yes"/>
      <point x="324" y="766"/>
      <point x="345" y="749"/>
    </contour>
    <contour>
      <point x="16" y="0" type="line"/>
      <point x="280" y="0" type="line"/>
      <point x="288" y="40" type="line"/>
      <point x="169" y="55" type="line"/>
      <point x="151" y="55" type="line"/>
      <point x="24" y="40" type="line"/>
    </contour>
    <contour>
      <point x="101" y="0" type="line"/>
      <point x="189" y="0" type="line"/>
      <point x="205" y="103"/>
      <point x="223" y="207"/>
      <point x="242" y="310" type="curve" smooth="yes"/>
      <point x="310" y="670" type="line"/>
      <point x="222" y="670" type="line"/>
      <point x="206" y="567"/>
      <point x="188" y="463"/>
      <point x="169" y="360" type="curve" smooth="yes"/>
    </contour>
    <contour>
      <point x="122" y="630" type="line"/>
      <point x="243" y="615" type="line"/>
      <point x="262" y="615" type="line"/>
      <point x="386" y="630" type="line"/>
      <point x="394" y="670" type="line"/>
      <point x="130" y="670" type="line"/>
    </contour>
  </outline>
</glyph>
<glyph name="Ntilde" format="2">
  <advance width="728"/>
  <unicode hex="00D1"/>
  <anchor x="508" y="873" name="aboveUC"/>
  <anchor x="365" y="-22" name="belowLC"/>
  <outline>
    <contour>
      <point x="10" y="0" type="line"/>
      <point x="242" y="0" type="line"/>
      <point x="248" y="40" type="line"/>
      <point x="136" y="55" type="line"/>
      <point x="117" y="55" type="line"/>
      <point x="18" y="40" type="line"/>
    </contour>
    <contour>
      <point x="90" y="0" type="line"/>
      <point x="138" y="0" type="line"/>
      <point x="265" y="670" type="line"/>
      <point x="217" y="670" type="line"/>
    </contour>
    <contour>
      <point x="559" y="-10" type="line"/>
      <point x="589" y="-10" type="line"/>
      <point x="604" y="83" type="line"/>
      <point x="277" y="670" type="line"/>
      <point x="125" y="670" type="line"/>
      <point x="117" y="630" type="line"/>
      <point x="244" y="615" type="line"/>
      <point x="191" y="639" type="line"/>
    </contour>
    <contour>
      <point x="549" y="630" type="line"/>
      <point x="671" y="615" type="line"/>
      <point x="690" y="615" type="line"/>
      <point x="785" y="630" type="line"/>
      <point x="793" y="670" type="line"/>
      <point x="557" y="670" type="line"/>
    </contour>
    <contour>
      <point x="589" y="-10" type="line"/>
      <point x="715" y="670" type="line"/>
      <point x="666" y="670" type="line"/>
      <point x="555" y="67" type="line"/>
    </contour>
    <contour>
      <point x="300" y="735" type="curve"/>
      <point x="327" y="726" type="line"/>
      <point x="353" y="786"/>
      <point x="378" y="807"/>
      <point x="411" y="807" type="curve" smooth="yes"/>
      <point x="441" y="807"/>
      <point x="457" y="779"/>
      <point x="478" y="758" type="curve" smooth="yes"/>
      <point x="497" y="740"/>
      <point x="517" y="724"/>
      <point x="554" y="724" type="curve" smooth="yes"/>
      <point x="616" y="724"/>
      <point x="654" y="765"/>
      <point x="682" y="852" type="curve"/>
      <point x="654" y="861" type="line"/>
      <point x="629" y="801"/>
      <point x="604" y="780"/>
      <point x="570" y="780" type="curve" smooth="yes"/>
      <point x="540" y="780"/>
      <point x="525" y="808"/>
      <point x="503" y="829" type="curve" smooth="yes"/>
      <point x="484" y="847"/>
      <point x="465" y="863"/>
      <point x="428" y="863" type="curve" smooth="yes"/>
      <point x="367" y="863"/>
      <point x="326" y="822"/>
    </contour>
  </outline>
</glyph>
<glyph name="Ograve" format="2">
  <advance width="660"/>
  <unicode hex="00D2"/>
  <anchor x="469" y="877" name="aboveUC"/>
  <anchor x="304" y="-21" name="belowLC"/>
  <anchor x="568" y="676" name="hornLC"/>
  <anchor x="392" y="-1" name="ogonek"/>
  <outline>
    <contour>
      <point x="305" y="-14" type="curve" smooth="yes"/>
      <point x="514" y="-14"/>
      <point x="653" y="179"/>
      <point x="653" y="409" type="curve" smooth="yes"/>
      <point x="653" y="577"/>
      <point x="560" y="684"/>
      <point x="412" y="684" type="curve" smooth="yes"/>
      <point x="208" y="684"/>
      <point x="67" y="491"/>
      <point x="67" y="259" type="curve" smooth="yes"/>
      <point x="67" y="90"/>
      <point x="161" y="-14"/>
    </contour>
    <contour>
      <point x="319" y="36" type="curve" smooth="yes"/>
      <point x="205" y="36"/>
      <point x="154" y="126"/>
      <point x="154" y="258" type="curve" smooth="yes"/>
      <point x="154" y="472"/>
      <point x="253" y="634"/>
      <point x="400" y="634" type="curve" smooth="yes"/>
      <point x="516" y="634"/>
      <point x="566" y="547"/>
      <point x="566" y="410" type="curve" smooth="yes"/>
      <point x="566" y="197"/>
      <point x="467" y="36"/>
    </contour>
    <contour>
      <point x="469" y="746" type="line"/>
      <point x="439" y="777"/>
      <point x="408" y="808"/>
      <point x="376" y="839" type="curve" smooth="yes"/>
      <point x="348" y="867"/>
      <point x="331" y="877"/>
      <point x="314" y="877" type="curve" smooth="yes"/>
      <point x="294" y="877"/>
      <point x="277" y="864"/>
      <point x="277" y="844" type="curve" smooth="yes"/>
      <point x="277" y="826"/>
      <point x="290" y="809"/>
      <point x="327" y="789" type="curve" smooth="yes"/>
      <point x="367" y="767"/>
      <point x="409" y="744"/>
      <point x="451" y="722" type="curve"/>
    </contour>
  </outline>
</glyph>
<glyph name="Oacute" format="2">
  <advance width="660"/>
  <unicode hex="00D3"/>
  <anchor x="502" y="867" name="aboveUC"/>
  <anchor x="304" y="-21" name="belowLC"/>
  <anchor x="568" y="676" name="hornLC"/>
  <anchor x="392" y="-1" name="ogonek"/>
  <outline>
    <contour>
      <point x="305" y="-14" type="curve" smooth="yes"/>
      <point x="514" y="-14"/>
      <point x="653" y="179"/>
      <point x="653" y="409" type="curve" smooth="yes"/>
      <point x="653" y="577"/>
      <point x="560" y="684"/>
      <point x="412" y="684" type="curve" smooth="yes"/>
      <point x="208" y="684"/>
      <point x="67" y="491"/>
      <point x="67" y="259" type="curve" smooth="yes"/>
      <point x="67" y="90"/>
      <point x="161" y="-14"/>
    </contour>
    <contour>
      <point x="319" y="36" type="curve" smooth="yes"/>
      <point x="205" y="36"/>
      <point x="154" y="126"/>
      <point x="154" y="258" type="curve" smooth="yes"/>
      <point x="154" y="472"/>
      <point x="253" y="634"/>
      <point x="400" y="634" type="curve" smooth="yes"/>
      <point x="516" y="634"/>
      <point x="566" y="547"/>
      <point x="566" y="410" type="curve" smooth="yes"/>
      <point x="566" y="197"/>
      <point x="467" y="36"/>
    </contour>
    <contour>
      <point x="404" y="735" type="curve"/>
      <point x="417" y="713" type="line"/>
      <point x="467" y="735"/>
      <point x="517" y="757"/>
      <point x="567" y="779" type="curve" smooth="yes"/>
      <point x="615" y="801"/>
      <point x="621" y="816"/>
      <point x="621" y="833" type="curve" smooth="yes"/>
      <point x="621" y="854"/>
      <point x="604" y="867"/>
      <point x="585" y="867" type="curve" smooth="yes"/>
      <point x="560" y="867"/>
      <point x="550" y="857"/>
      <point x="517" y="830" type="curve" smooth="yes"/>
      <point x="479" y="798"/>
      <point x="442" y="767"/>
    </contour>
  </outline>
</glyph>
<glyph name="Ocircumflex" format="2">
  <advance width="660"/>
  <unicode hex="00D4"/>
  <anchor x="452" y="871" name="aboveUC"/>
  <anchor x="304" y="-21" name="belowLC"/>
  <anchor x="568" y="676" name="hornLC"/>
  <anchor x="392" y="-1" name="ogonek"/>
  <outline>
    <contour>
      <point x="305" y="-14" type="curve" smooth="yes"/>
      <point x="514" y="-14"/>
      <point x="653" y="179"/>
      <point x="653" y="409" type="curve" smooth="yes"/>
      <point x="653" y="577"/>
      <point x="560" y="684"/>
      <point x="412" y="684" type="curve" smooth="yes"/>
      <point x="208" y="684"/>
      <point x="67" y="491"/>
      <point x="67" y="259" type="curve" smooth="yes"/>
      <point x="67" y="90"/>
      <point x="161" y="-14"/>
    </contour>
    <contour>
      <point x="319" y="36" type="curve" smooth="yes"/>
      <point x="205" y="36"/>
      <point x="154" y="126"/>
      <point x="154" y="258" type="curve" smooth="yes"/>
      <point x="154" y="472"/>
      <point x="253" y="634"/>
      <point x="400" y="634" type="curve" smooth="yes"/>
      <point x="516" y="634"/>
      <point x="566" y="547"/>
      <point x="566" y="410" type="curve" smooth="yes"/>
      <point x="566" y="197"/>
      <point x="467" y="36"/>
    </contour>
    <contour>
      <point x="464" y="861" type="line"/>
      <point x="432" y="861" type="line"/>
      <point x="281" y="742" type="line"/>
      <point x="295" y="718" type="line"/>
      <point x="484" y="825" type="line"/>
      <point x="400" y="825" type="line"/>
      <point x="559" y="718" type="line"/>
      <point x="583" y="742" type="line"/>
    </contour>
  </outline>
</glyph>
<glyph name="Odieresis" format="2">
  <advance width="660"/>
  <unicode hex="00D6"/>
  <anchor x="443" y="861" name="aboveUC"/>
  <anchor x="304" y="-21" name="belowLC"/>
  <anchor x="568" y="676" name="hornLC"/>
  <anchor x="392" y="-1" name="ogonek"/>
  <outline>
    <contour>
      <point x="305" y="-14" type="curve" smooth="yes"/>
      <point x="514" y="-14"/>
      <point x="653" y="179"/>
      <point x="653" y="409" type="curve" smooth="yes"/>
      <point x="653" y="577"/>
      <point x="560" y="684"/>
      <point x="412" y="684" type="curve" smooth="yes"/>
      <point x="208" y="684"/>
      <point x="67" y="491"/>
      <point x="67" y="259" type="curve" smooth="yes"/>
      <point x="67" y="90"/>
      <point x="161" y="-14"/>
    </contour>
    <contour>
      <point x="319" y="36" type="curve" smooth="yes"/>
      <point x="205" y="36"/>
      <point x="154" y="126"/>
      <point x="154" y="258" type="curve" smooth="yes"/>
      <point x="154" y="472"/>
      <point x="253" y="634"/>
      <point x="400" y="634" type="curve" smooth="yes"/>
      <point x="516" y="634"/>
      <point x="566" y="547"/>
      <point x="566" y="410" type="curve" smooth="yes"/>
      <point x="566" y="197"/>
      <point x="467" y="36"/>
    </contour>
    <contour>
      <point x="311" y="749" type="curve" smooth="yes"/>
      <point x="341" y="749"/>
      <point x="366" y="773"/>
      <point x="366" y="807" type="curve" smooth="yes"/>
      <point x="366" y="832"/>
      <point x="347" y="851"/>
      <point x="321" y="851" type="curve" smooth="yes"/>
      <point x="293" y="851"/>
      <point x="266" y="828"/>
      <point x="266" y="794" type="curve" smooth="yes"/>
      <point x="266" y="766"/>
      <point x="287" y="749"/>
    </contour>
    <contour>
      <point x="529" y="749" type="curve" smooth="yes"/>
      <point x="560" y="749"/>
      <point x="585" y="773"/>
      <point x="585" y="807" type="curve" smooth="yes"/>
      <point x="585" y="832"/>
      <point x="566" y="851"/>
      <point x="540" y="851" type="curve" smooth="yes"/>
      <point x="512" y="851"/>
      <point x="486" y="828"/>
      <point x="486" y="794" type="curve" smooth="yes"/>
      <point x="486" y="766"/>
      <point x="507" y="749"/>
    </contour>
  </outline>
</glyph>
<glyph name="multiply" format="2">
  <advance width="530"/>
  <unicode hex="00D7"/>
  <outline>
    <contour>
      <point x="452" y="121" type="line"/>
      <point x="490" y="159" type="line"/>
      <point x="110" y="539" type="line"/>
      <point x="72" y="501" type="line"/>
    </contour>
    <contour>
      <point x="490" y="501" type="line"/>
      <point x="452" y="539" type="line"/>
      <point x="72" y="159" type="line"/>
      <point x="110" y="121" type="line"/>
    </contour>
  </outline>
</glyph>
<glyph name="Uacute" format="2">
  <advance width="713"/>
  <unicode hex="00DA"/>
  <anchor x="555" y="867" name="aboveUC"/>
  <anchor x="336" y="-22" name="belowLC"/>
  <anchor x="668" y="679" name="hornLC"/>
  <anchor x="422" y="0" name="ogonek"/>
  <outline>
    <contour>
      <point x="121" y="179" type="curve" smooth="yes"/>
      <point x="121" y="54"/>
      <point x="193" y="-15"/>
      <point x="328" y="-15" type="curve" smooth="yes"/>
      <point x="474" y="-15"/>
      <point x="579" y="62"/>
      <point x="619" y="274" type="curve" smooth="yes"/>
      <point x="694" y="670" type="line"/>
      <point x="642" y="670" type="line"/>
      <point x="571" y="299" type="line" smooth="yes"/>
      <point x="534" y="108"/>
      <point x="478" y="55"/>
      <point x="338" y="55" type="curve" smooth="yes"/>
      <point x="265" y="55"/>
      <point x="204" y="101"/>
      <point x="204" y="185" type="curve" smooth="yes"/>
      <point x="204" y="232"/>
      <point x="210" y="256"/>
      <point x="215" y="282" type="curve" smooth="yes"/>
      <point x="286" y="670" type="line"/>
      <point x="201" y="670" type="line"/>
      <point x="185" y="567"/>
      <point x="167" y="463"/>
      <point x="148" y="360" type="curve" smooth="yes"/>
      <point x="134" y="286" type="line" smooth="yes"/>
      <point x="127" y="249"/>
      <point x="121" y="212"/>
    </contour>
    <contour>
      <point x="100" y="630" type="line"/>
      <point x="221" y="615" type="line"/>
      <point x="240" y="615" type="line"/>
      <point x="364" y="630" type="line"/>
      <point x="372" y="670" type="line"/>
      <point x="108" y="670" type="line"/>
    </contour>
    <contour>
      <point x="528" y="630" type="line"/>
      <point x="645" y="615" type="line"/>
      <point x="664" y="615" type="line"/>
      <point x="770" y="630" type="line"/>
      <point x="778" y="670" type="line"/>
      <point x="536" y="670" type="line"/>
    </contour>
    <contour>
      <point x="457" y="735" type="curve"/>
      <point x="470" y="713" type="line"/>
      <point x="520" y="735"/>
      <point x="570" y="757"/>
      <point x="620" y="779" type="curve" smooth="yes"/>
      <point x="668" y="801"/>
      <point x="674" y="816"/>
      <point x="674" y="833" type="curve" smooth="yes"/>
      <point x="674" y="854"/>
      <point x="657" y="867"/>
      <point x="638" y="867" type="curve" smooth="yes"/>
      <point x="613" y="867"/>
      <point x="603" y="857"/>
      <point x="570" y="830" type="curve" smooth="yes"/>
      <point x="532" y="798"/>
      <point x="495" y="767"/>
    </contour>
  </outline>
</glyph>
<glyph name="Yacute" format="2">
  <advance width="553"/>
  <unicode hex="00DD"/>
  <anchor x="454" y="867" name="aboveUC"/>
  <anchor x="250" y="-22" name="belowLC"/>
  <outline>
    <contour>
      <point x="62" y="630" type="line"/>
      <point x="183" y="615" type="line"/>
      <point x="202" y="615" type="line"/>
      <point x="326" y="630" type="line"/>
      <point x="334" y="670" type="line"/>
      <point x="70" y="670" type="line"/>
    </contour>
    <contour>
      <point x="112" y="0" type="line"/>
      <point x="396" y="0" type="line"/>
      <point x="404" y="40" type="line"/>
      <point x="275" y="55" type="line"/>
      <point x="257" y="55" type="line"/>
      <point x="120" y="40" type="line"/>
    </contour>
    <contour>
      <point x="271" y="250" type="line"/>
      <point x="323" y="250" type="line"/>
      <point x="600" y="670" type="line"/>
      <point x="550" y="670" type="line"/>
      <point x="320" y="314" type="line"/>
      <point x="334" y="314" type="line"/>
      <point x="222" y="670" type="line"/>
      <point x="124" y="670" type="line"/>
    </contour>
    <contour>
      <point x="207" y="0" type="line"/>
      <point x="295" y="0" type="line"/>
      <point x="311" y="103"/>
      <point x="329" y="207"/>
      <point x="348" y="310" type="curve"/>
      <point x="266" y="310" type="line"/>
    </contour>
    <contour>
      <point x="431" y="630" type="line"/>
      <point x="532" y="615" type="line"/>
      <point x="551" y="615" type="line"/>
      <point x="655" y="630" type="line"/>
      <point x="663" y="670" type="line"/>
      <point x="439" y="670" type="line"/>
    </contour>
    <contour>
      <point x="356" y="735" type="curve"/>
      <point x="369" y="713" type="line"/>
      <point x="419" y="735"/>
      <point x="469" y="757"/>
      <point x="519" y="779" type="curve" smooth="yes"/>
      <point x="567" y="801"/>
      <point x="573" y="816"/>
      <point x="573" y="833" type="curve" smooth="yes"/>
      <point x="573" y="854"/>
      <point x="556" y="867"/>
      <point x="537" y="867" type="curve" smooth="yes"/>
      <point x="512" y="867"/>
      <point x="502" y="857"/>
      <point x="469" y="830" type="curve" smooth="yes"/>
      <point x="431" y="798"/>
      <point x="394" y="767"/>
    </contour>
  </outline>
</glyph>
<glyph name="agrave" format="2">
  <advance width="521"/>
  <unicode hex="00E0"/>
  <anchor x="435" y="741" name="aboveLC"/>
  <anchor x="217" y="-22" name="belowLC"/>
  <anchor x="400" y="0" name="ogonek"/>
  <outline>
    <contour>
      <point x="140" y="-13" type="curve" smooth="yes"/>
      <point x="211" y="-13"/>
      <point x="300" y="67"/>
      <point x="370" y="171" type="curve"/>
      <point x="361" y="193" type="line"/>
      <point x="273" y="88"/>
      <point x="223" y="55"/>
      <point x="181" y="55" type="curve" smooth="yes"/>
      <point x="145" y="55"/>
      <point x="121" y="84"/>
      <point x="121" y="145" type="curve" smooth="yes"/>
      <point x="121" y="234"/>
      <point x="159" y="312"/>
      <point x="207" y="362" type="curve" smooth="yes"/>
      <point x="244" y="400"/>
      <point x="286" y="421"/>
      <point x="318" y="421" type="curve" smooth="yes"/>
      <point x="353" y="421"/>
      <point x="387" y="400"/>
      <point x="412" y="379" type="curve"/>
      <point x="448" y="404" type="line"/>
      <point x="422" y="450"/>
      <point x="396" y="487"/>
      <point x="353" y="487" type="curve" smooth="yes"/>
      <point x="225" y="487"/>
      <point x="45" y="278"/>
      <point x="45" y="104" type="curve" smooth="yes"/>
      <point x="45" y="22"/>
      <point x="92" y="-13"/>
    </contour>
    <contour>
      <point x="362" y="-13" type="curve" smooth="yes"/>
      <point x="429" y="-13"/>
      <point x="491" y="51"/>
      <point x="531" y="109" type="curve"/>
      <point x="507" y="128" type="line"/>
      <point x="472" y="85"/>
      <point x="433" y="55"/>
      <point x="408" y="55" type="curve" smooth="yes"/>
      <point x="395" y="55"/>
      <point x="384" y="63"/>
      <point x="384" y="77" type="curve" smooth="yes"/>
      <point x="384" y="89"/>
      <point x="387" y="110"/>
      <point x="393" y="135" type="curve" smooth="yes"/>
      <point x="473" y="488" type="line"/>
      <point x="455" y="497" type="line"/>
      <point x="389" y="442" type="line"/>
      <point x="321" y="127" type="line" smooth="yes"/>
      <point x="314" y="94"/>
      <point x="311" y="73"/>
      <point x="311" y="44" type="curve" smooth="yes"/>
      <point x="311" y="5"/>
      <point x="335" y="-13"/>
    </contour>
    <contour>
      <point x="405" y="549" type="line"/>
      <point x="380" y="605"/>
      <point x="355" y="661"/>
      <point x="330" y="717" type="curve" smooth="yes"/>
      <point x="318" y="743"/>
      <point x="302" y="761"/>
      <point x="280" y="761" type="curve" smooth="yes"/>
      <point x="260" y="761"/>
      <point x="242" y="748"/>
      <point x="242" y="727" type="curve" smooth="yes"/>
      <point x="242" y="710"/>
      <point x="247" y="696"/>
      <point x="263" y="677" type="curve" smooth="yes"/>
      <point x="303" y="629"/>
      <point x="342" y="582"/>
      <point x="382" y="534" type="curve"/>
    </contour>
  </outline>
</glyph>
<glyph name="atilde" format="2">
  <advance width="521"/>
  <unicode hex="00E3"/>
  <anchor x="393" y="724" name="aboveLC"/>
  <anchor x="217" y="-22" name="belowLC"/>
  <anchor x="400" y="0" name="ogonek"/>
  <outline>
    <contour>
      <point x="140" y="-13" type="curve" smooth="yes"/>
      <point x="211" y="-13"/>
      <point x="300" y="67"/>
      <point x="370" y="171" type="curve"/>
      <point x="361" y="193" type="line"/>
      <point x="273" y="88"/>
      <point x="223" y="55"/>
      <point x="181" y="55" type="curve" smooth="yes"/>
      <point x="145" y="55"/>
      <point x="121" y="84"/>
      <point x="121" y="145" type="curve" smooth="yes"/>
      <point x="121" y="234"/>
      <point x="159" y="312"/>
      <point x="207" y="362" type="curve" smooth="yes"/>
      <point x="244" y="400"/>
      <point x="286" y="421"/>
      <point x="318" y="421" type="curve" smooth="yes"/>
      <point x="353" y="421"/>
      <point x="387" y="400"/>
      <point x="412" y="379" type="curve"/>
      <point x="448" y="404" type="line"/>
      <point x="422" y="450"/>
      <point x="396" y="487"/>
      <point x="353" y="487" type="curve" smooth="yes"/>
      <point x="225" y="487"/>
      <point x="45" y="278"/>
      <point x="45" y="104" type="curve" smooth="yes"/>
      <point x="45" y="22"/>
      <point x="92" y="-13"/>
    </contour>
    <contour>
      <point x="362" y="-13" type="curve" smooth="yes"/>
      <point x="429" y="-13"/>
      <point x="491" y="51"/>
      <point x="531" y="109" type="curve"/>
      <point x="507" y="128" type="line"/>
      <point x="472" y="85"/>
      <point x="433" y="55"/>
      <point x="408" y="55" type="curve" smooth="yes"/>
      <point x="395" y="55"/>
      <point x="384" y="63"/>
      <point x="384" y="77" type="curve" smooth="yes"/>
      <point x="384" y="89"/>
      <point x="387" y="110"/>
      <point x="393" y="135" type="curve" smooth="yes"/>
      <point x="473" y="488" type="line"/>
      <point x="455" y="497" type="line"/>
      <point x="389" y="442" type="line"/>
      <point x="321" y="127" type="line" smooth="yes"/>
      <point x="314" y="94"/>
      <point x="311" y="73"/>
      <point x="311" y="44" type="curve" smooth="yes"/>
      <point x="311" y="5"/>
      <point x="335" y="-13"/>
    </contour>
    <contour>
      <point x="203" y="586" type="curve"/>
      <point x="227" y="577" type="line"/>
      <point x="240" y="636"/>
      <point x="268" y="662"/>
      <point x="294" y="662" type="curve" smooth="yes"/>
      <point x="326" y="662"/>
      <point x="346" y="636"/>
      <point x="366" y="613" type="curve" smooth="yes"/>
      <point x="383" y="594"/>
      <point x="403" y="575"/>
      <point x="441" y="575" type="curve" smooth="yes"/>
      <point x="492" y="575"/>
      <point x="532" y="617"/>
      <point x="549" y="703" type="curve"/>
      <point x="524" y="712" type="line"/>
      <point x="511" y="653"/>
      <point x="483" y="627"/>
      <point x="457" y="627" type="curve" smooth="yes"/>
      <point x="426" y="627"/>
      <point x="407" y="653"/>
      <point x="385" y="676" type="curve" smooth="yes"/>
      <point x="368" y="695"/>
      <point x="349" y="714"/>
      <point x="311" y="714" type="curve" smooth="yes"/>
      <point x="261" y="714"/>
      <point x="218" y="672"/>
    </contour>
  </outline>
</glyph>
<glyph name="aring" format="2">
  <advance width="521"/>
  <unicode hex="00E5"/>
  <anchor x="414" y="761" name="aboveLC"/>
  <anchor x="217" y="-22" name="belowLC"/>
  <anchor x="400" y="0" name="ogonek"/>
  <outline>
    <contour>
      <point x="140" y="-13" type="curve" smooth="yes"/>
      <point x="211" y="-13"/>
      <point x="300" y="67"/>
      <point x="370" y="171" type="curve"/>
      <point x="361" y="193" type="line"/>
      <point x="273" y="88"/>
      <point x="223" y="55"/>
      <point x="181" y="55" type="curve" smooth="yes"/>
      <point x="145" y="55"/>
      <point x="121" y="84"/>
      <point x="121" y="145" type="curve" smooth="yes"/>
      <point x="121" y="234"/>
      <point x="159" y="312"/>
      <point x="207" y="362" type="curve" smooth="yes"/>
      <point x="244" y="400"/>
      <point x="286" y="421"/>
      <point x="318" y="421" type="curve" smooth="yes"/>
      <point x="353" y="421"/>
      <point x="387" y="400"/>
      <point x="412" y="379" type="curve"/>
      <point x="448" y="404" type="line"/>
      <point x="422" y="450"/>
      <point x="396" y="487"/>
      <point x="353" y="487" type="curve" smooth="yes"/>
      <point x="225" y="487"/>
      <point x="45" y="278"/>
      <point x="45" y="104" type="curve" smooth="yes"/>
      <point x="45" y="22"/>
      <point x="92" y="-13"/>
    </contour>
    <contour>
      <point x="362" y="-13" type="curve" smooth="yes"/>
      <point x="429" y="-13"/>
      <point x="491" y="51"/>
      <point x="531" y="109" type="curve"/>
      <point x="507" y="128" type="line"/>
      <point x="472" y="85"/>
      <point x="433" y="55"/>
      <point x="408" y="55" type="curve" smooth="yes"/>
      <point x="395" y="55"/>
      <point x="384" y="63"/>
      <point x="384" y="77" type="curve" smooth="yes"/>
      <point x="384" y="89"/>
      <point x="387" y="110"/>
      <point x="393" y="135" type="curve" smooth="yes"/>
      <point x="473" y="488" type="line"/>
      <point x="455" y="497" type="line"/>
      <point x="389" y="442" type="line"/>
      <point x="321" y="127" type="line" smooth="yes"/>
      <point x="314" y="94"/>
      <point x="311" y="73"/>
      <point x="311" y="44" type="curve" smooth="yes"/>
      <point x="311" y="5"/>
      <point x="335" y="-13"/>
    </contour>
    <contour>
      <point x="382" y="549" type="curve" smooth="yes"/>
      <point x="437" y="549"/>
      <point x="496" y="589"/>
      <point x="496" y="662" type="curve" smooth="yes"/>
      <point x="496" y="717"/>
      <point x="450" y="751"/>
      <point x="399" y="751" type="curve" smooth="yes"/>
      <point x="346" y="751"/>
      <point x="286" y="711"/>
      <point x="286" y="640" type="curve" smooth="yes"/>
      <point x="286" y="584"/>
      <point x="329" y="549"/>
    </contour>
    <contour>
      <point x="385" y="586" type="curve" smooth="yes"/>
      <point x="346" y="586"/>
      <point x="331" y="615"/>
      <point x="331" y="642" type="curve" smooth="yes"/>
      <point x="331" y="678"/>
      <point x="357" y="715"/>
      <point x="398" y="715" type="curve" smooth="yes"/>
      <point x="434" y="715"/>
      <point x="451" y="687"/>
      <point x="451" y="659" type="curve" smooth="yes"/>
      <point x="451" y="620"/>
      <point x="421" y="586"/>
    </contour>
  </outline>
</glyph>
<glyph name="ae" format="2">
  <advance width="665"/>
  <unicode hex="00E6"/>
  <anchor x="451" y="506" name="aboveLC"/>
  <anchor x="330" y="-22" name="belowLC"/>
  <anchor x="500" y="0" name="ogonek"/>
  <outline>
    <contour>
      <point x="140" y="-13" type="curve" smooth="yes"/>
      <point x="201" y="-13"/>
      <point x="276" y="46"/>
      <point x="340" y="129" type="curve"/>
      <point x="335" y="163" type="line"/>
      <point x="263" y="82"/>
      <point x="219" y="55"/>
      <point x="181" y="55" type="curve" smooth="yes"/>
      <point x="145" y="55"/>
      <point x="121" y="84"/>
      <point x="121" y="145" type="curve" smooth="yes"/>
      <point x="121" y="234"/>
      <point x="159" y="312"/>
      <point x="207" y="362" type="curve" smooth="yes"/>
      <point x="244" y="400"/>
      <point x="286" y="421"/>
      <point x="318" y="421" type="curve" smooth="yes"/>
      <point x="353" y="421"/>
      <point x="384" y="408"/>
      <point x="412" y="379" type="curve"/>
      <point x="453" y="414" type="line"/>
      <point x="429" y="457"/>
      <point x="398" y="487"/>
      <point x="353" y="487" type="curve" smooth="yes"/>
      <point x="225" y="487"/>
      <point x="45" y="278"/>
      <point x="45" y="104" type="curve" smooth="yes"/>
      <point x="45" y="22"/>
      <point x="92" y="-13"/>
    </contour>
    <contour>
      <point x="464" y="-13" type="curve" smooth="yes"/>
      <point x="537" y="-13"/>
      <point x="601" y="42"/>
      <point x="643" y="110" type="curve"/>
      <point x="620" y="128" type="line"/>
      <point x="593" y="94"/>
      <point x="548" y="55"/>
      <point x="485" y="55" type="curve" smooth="yes"/>
      <point x="420" y="55"/>
      <point x="381" y="94"/>
      <point x="381" y="194" type="curve" smooth="yes"/>
      <point x="381" y="327"/>
      <point x="487" y="444"/>
      <point x="552" y="444" type="curve" smooth="yes"/>
      <point x="585" y="444"/>
      <point x="608" y="422"/>
      <point x="608" y="385" type="curve" smooth="yes"/>
      <point x="608" y="328"/>
      <point x="543" y="255"/>
      <point x="356" y="207" type="curve"/>
      <point x="360" y="169" type="line"/>
      <point x="607" y="235"/>
      <point x="673" y="330"/>
      <point x="673" y="395" type="curve" smooth="yes"/>
      <point x="673" y="454"/>
      <point x="638" y="487"/>
      <point x="574" y="487" type="curve" smooth="yes"/>
      <point x="435" y="487"/>
      <point x="314" y="334"/>
      <point x="314" y="173" type="curve" smooth="yes"/>
      <point x="314" y="45"/>
      <point x="377" y="-13"/>
    </contour>
  </outline>
</glyph>
<glyph name="ccedilla" format="2">
  <advance width="405"/>
  <unicode hex="00E7"/>
  <anchor x="313" y="505" name="aboveLC"/>
  <anchor x="183" y="0" name="baseLC"/>
  <anchor x="177" y="-22" name="belowLC"/>
  <outline>
    <contour>
      <point x="203" y="-13" type="curve" smooth="yes"/>
      <point x="271" y="-13"/>
      <point x="343" y="40"/>
      <point x="383" y="110" type="curve"/>
      <point x="360" y="128" type="line"/>
      <point x="333" y="94"/>
      <point x="292" y="55"/>
      <point x="238" y="55" type="curve" smooth="yes"/>
      <point x="172" y="55"/>
      <point x="127" y="97"/>
      <point x="127" y="184" type="curve" smooth="yes"/>
      <point x="127" y="321"/>
      <point x="217" y="441"/>
      <point x="314" y="456" type="curve"/>
      <point x="272" y="467" type="line"/>
      <point x="317" y="416" type="line" smooth="yes"/>
      <point x="335" y="396"/>
      <point x="354" y="380"/>
      <point x="376" y="380" type="curve" smooth="yes"/>
      <point x="394" y="380"/>
      <point x="413" y="390"/>
      <point x="417" y="414" type="curve"/>
      <point x="406" y="457"/>
      <point x="371" y="487"/>
      <point x="310" y="487" type="curve" smooth="yes"/>
      <point x="185" y="487"/>
      <point x="54" y="343"/>
      <point x="54" y="174" type="curve" smooth="yes"/>
      <point x="54" y="49"/>
      <point x="116" y="-13"/>
    </contour>
    <contour>
      <point x="148" y="-87" type="line"/>
      <point x="195" y="-99"/>
      <point x="222" y="-115"/>
      <point x="222" y="-152" type="curve" smooth="yes"/>
      <point x="222" y="-182"/>
      <point x="199" y="-199"/>
      <point x="164" y="-199" type="curve" smooth="yes"/>
      <point x="139" y="-199"/>
      <point x="120" y="-193"/>
      <point x="98" y="-183" type="curve"/>
      <point x="87" y="-208" type="line"/>
      <point x="108" y="-221"/>
      <point x="142" y="-231"/>
      <point x="176" y="-231" type="curve" smooth="yes"/>
      <point x="240" y="-231"/>
      <point x="279" y="-197"/>
      <point x="279" y="-157" type="curve" smooth="yes"/>
      <point x="279" y="-110"/>
      <point x="245" y="-89"/>
      <point x="177" y="-65" type="curve"/>
      <point x="179" y="-86" type="line"/>
      <point x="219" y="0" type="line"/>
      <point x="191" y="0" type="line"/>
    </contour>
  </outline>
</glyph>
<glyph name="egrave" format="2">
  <advance width="405"/>
  <unicode hex="00E8"/>
  <anchor x="381" y="741" name="aboveLC"/>
  <anchor x="191" y="-22" name="belowLC"/>
  <anchor x="240" y="0" name="ogonek"/>
  <outline>
    <contour>
      <point x="204" y="-13" type="curve" smooth="yes"/>
      <point x="277" y="-13"/>
      <point x="341" y="42"/>
      <point x="383" y="110" type="curve"/>
      <point x="360" y="128" type="line"/>
      <point x="333" y="94"/>
      <point x="288" y="55"/>
      <point x="225" y="55" type="curve" smooth="yes"/>
      <point x="160" y="55"/>
      <point x="121" y="94"/>
      <point x="121" y="194" type="curve" smooth="yes"/>
      <point x="121" y="327"/>
      <point x="227" y="444"/>
      <point x="292" y="444" type="curve" smooth="yes"/>
      <point x="325" y="444"/>
      <point x="348" y="422"/>
      <point x="348" y="385" type="curve" smooth="yes"/>
      <point x="348" y="328"/>
      <point x="283" y="255"/>
      <point x="96" y="207" type="curve"/>
      <point x="100" y="169" type="line"/>
      <point x="347" y="235"/>
      <point x="413" y="330"/>
      <point x="413" y="395" type="curve" smooth="yes"/>
      <point x="413" y="454"/>
      <point x="378" y="487"/>
      <point x="314" y="487" type="curve" smooth="yes"/>
      <point x="175" y="487"/>
      <point x="54" y="334"/>
      <point x="54" y="173" type="curve" smooth="yes"/>
      <point x="54" y="45"/>
      <point x="117" y="-13"/>
    </contour>
    <contour>
      <point x="351" y="549" type="line"/>
      <point x="326" y="605"/>
      <point x="301" y="661"/>
      <point x="276" y="717" type="curve" smooth="yes"/>
      <point x="264" y="743"/>
      <point x="248" y="761"/>
      <point x="226" y="761" type="curve" smooth="yes"/>
      <point x="206" y="761"/>
      <point x="188" y="748"/>
      <point x="188" y="727" type="curve" smooth="yes"/>
      <point x="188" y="710"/>
      <point x="193" y="696"/>
      <point x="209" y="677" type="curve" smooth="yes"/>
      <point x="249" y="629"/>
      <point x="288" y="582"/>
      <point x="328" y="534" type="curve"/>
    </contour>
  </outline>
</glyph>
<glyph name="eacute" format="2">
  <advance width="405"/>
  <unicode hex="00E9"/>
  <anchor x="373" y="759" name="aboveLC"/>
  <anchor x="191" y="-22" name="belowLC"/>
  <anchor x="240" y="0" name="ogonek"/>
  <outline>
    <contour>
      <point x="204" y="-13" type="curve" smooth="yes"/>
      <point x="277" y="-13"/>
      <point x="341" y="42"/>
      <point x="383" y="110" type="curve"/>
      <point x="360" y="128" type="line"/>
      <point x="333" y="94"/>
      <point x="288" y="55"/>
      <point x="225" y="55" type="curve" smooth="yes"/>
      <point x="160" y="55"/>
      <point x="121" y="94"/>
      <point x="121" y="194" type="curve" smooth="yes"/>
      <point x="121" y="327"/>
      <point x="227" y="444"/>
      <point x="292" y="444" type="curve" smooth="yes"/>
      <point x="325" y="444"/>
      <point x="348" y="422"/>
      <point x="348" y="385" type="curve" smooth="yes"/>
      <point x="348" y="328"/>
      <point x="283" y="255"/>
      <point x="96" y="207" type="curve"/>
      <point x="100" y="169" type="line"/>
      <point x="347" y="235"/>
      <point x="413" y="330"/>
      <point x="413" y="395" type="curve" smooth="yes"/>
      <point x="413" y="454"/>
      <point x="378" y="487"/>
      <point x="314" y="487" type="curve" smooth="yes"/>
      <point x="175" y="487"/>
      <point x="54" y="334"/>
      <point x="54" y="173" type="curve" smooth="yes"/>
      <point x="54" y="45"/>
      <point x="117" y="-13"/>
    </contour>
    <contour>
      <point x="312" y="549" type="curve"/>
      <point x="335" y="534" type="line"/>
      <point x="375" y="582"/>
      <point x="414" y="629"/>
      <point x="454" y="677" type="curve" smooth="yes"/>
      <point x="470" y="696"/>
      <point x="475" y="710"/>
      <point x="475" y="725" type="curve" smooth="yes"/>
      <point x="475" y="748"/>
      <point x="458" y="759"/>
      <point x="437" y="759" type="curve" smooth="yes"/>
      <point x="415" y="759"/>
      <point x="399" y="743"/>
      <point x="387" y="717" type="curve" smooth="yes"/>
      <point x="362" y="661"/>
      <point x="337" y="605"/>
    </contour>
  </outline>
</glyph>
<glyph name="igrave" format="2">
  <advance width="305"/>
  <unicode hex="00EC"/>
  <anchor x="274" y="741" name="aboveLC"/>
  <anchor x="138" y="-22" name="belowLC"/>
  <anchor x="181" y="0" name="ogonek"/>
  <outline>
    <contour>
      <point x="91" y="38" type="curve" smooth="yes"/>
      <point x="91" y="4"/>
      <point x="117" y="-13"/>
      <point x="144" y="-13" type="curve" smooth="yes"/>
      <point x="215" y="-13"/>
      <point x="266" y="49"/>
      <point x="311" y="109" type="curve"/>
      <point x="287" y="128" type="line"/>
      <point x="246" y="80"/>
      <point x="214" y="55"/>
      <point x="190" y="55" type="curve" smooth="yes"/>
      <point x="179" y="55"/>
      <point x="168" y="63"/>
      <point x="168" y="77" type="curve" smooth="yes"/>
      <point x="168" y="89"/>
      <point x="172" y="110"/>
      <point x="177" y="135" type="curve" smooth="yes"/>
      <point x="248" y="477" type="line"/>
      <point x="235" y="487" type="line"/>
      <point x="66" y="436" type="line"/>
      <point x="62" y="407" type="line"/>
      <point x="182" y="400" type="line"/>
      <point x="165" y="414" type="line"/>
      <point x="101" y="110" type="line" smooth="yes"/>
      <point x="92" y="69"/>
      <point x="91" y="52"/>
    </contour>
    <contour>
      <point x="244" y="549" type="line"/>
      <point x="219" y="605"/>
      <point x="194" y="661"/>
      <point x="169" y="717" type="curve" smooth="yes"/>
      <point x="157" y="743"/>
      <point x="141" y="761"/>
      <point x="119" y="761" type="curve" smooth="yes"/>
      <point x="99" y="761"/>
      <point x="81" y="748"/>
      <point x="81" y="727" type="curve" smooth="yes"/>
      <point x="81" y="710"/>
      <point x="86" y="696"/>
      <point x="102" y="677" type="curve" smooth="yes"/>
      <point x="142" y="629"/>
      <point x="181" y="582"/>
      <point x="221" y="534" type="curve"/>
    </contour>
  </outline>
</glyph>
<glyph name="iacute" format="2">
  <advance width="305"/>
  <unicode hex="00ED"/>
  <anchor x="283" y="759" name="aboveLC"/>
  <anchor x="138" y="-22" name="belowLC"/>
  <anchor x="181" y="0" name="ogonek"/>
  <outline>
    <contour>
      <point x="91" y="38" type="curve" smooth="yes"/>
      <point x="91" y="4"/>
      <point x="117" y="-13"/>
      <point x="144" y="-13" type="curve" smooth="yes"/>
      <point x="215" y="-13"/>
      <point x="266" y="49"/>
      <point x="311" y="109" type="curve"/>
      <point x="287" y="128" type="line"/>
      <point x="246" y="80"/>
      <point x="214" y="55"/>
      <point x="190" y="55" type="curve" smooth="yes"/>
      <point x="179" y="55"/>
      <point x="168" y="63"/>
      <point x="168" y="77" type="curve" smooth="yes"/>
      <point x="168" y="89"/>
      <point x="172" y="110"/>
      <point x="177" y="135" type="curve" smooth="yes"/>
      <point x="248" y="477" type="line"/>
      <point x="235" y="487" type="line"/>
      <point x="66" y="436" type="line"/>
      <point x="62" y="407" type="line"/>
      <point x="182" y="400" type="line"/>
      <point x="165" y="414" type="line"/>
      <point x="101" y="110" type="line" smooth="yes"/>
      <point x="92" y="69"/>
      <point x="91" y="52"/>
    </contour>
    <contour>
      <point x="222" y="549" type="curve"/>
      <point x="245" y="534" type="line"/>
      <point x="285" y="582"/>
      <point x="324" y="629"/>
      <point x="364" y="677" type="curve" smooth="yes"/>
      <point x="380" y="696"/>
      <point x="385" y="710"/>
      <point x="385" y="725" type="curve" smooth="yes"/>
      <point x="385" y="748"/>
      <point x="368" y="759"/>
      <point x="347" y="759" type="curve" smooth="yes"/>
      <point x="325" y="759"/>
      <point x="309" y="743"/>
      <point x="297" y="717" type="curve" smooth="yes"/>
      <point x="272" y="661"/>
      <point x="247" y="605"/>
    </contour>
  </outline>
</glyph>
<glyph name="icircumflex" format="2">
  <advance width="305"/>
  <unicode hex="00EE"/>
  <anchor x="249" y="733" name="aboveLC"/>
  <anchor x="138" y="-22" name="belowLC"/>
  <anchor x="181" y="0" name="ogonek"/>
  <outline>
    <contour>
      <point x="91" y="38" type="curve" smooth="yes"/>
      <point x="91" y="4"/>
      <point x="117" y="-13"/>
      <point x="144" y="-13" type="curve" smooth="yes"/>
      <point x="215" y="-13"/>
      <point x="266" y="49"/>
      <point x="311" y="109" type="curve"/>
      <point x="287" y="128" type="line"/>
      <point x="246" y="80"/>
      <point x="214" y="55"/>
      <point x="190" y="55" type="curve" smooth="yes"/>
      <point x="179" y="55"/>
      <point x="168" y="63"/>
      <point x="168" y="77" type="curve" smooth="yes"/>
      <point x="168" y="89"/>
      <point x="172" y="110"/>
      <point x="177" y="135" type="curve" smooth="yes"/>
      <point x="248" y="477" type="line"/>
      <point x="235" y="487" type="line"/>
      <point x="66" y="436" type="line"/>
      <point x="62" y="407" type="line"/>
      <point x="182" y="400" type="line"/>
      <point x="165" y="414" type="line"/>
      <point x="101" y="110" type="line" smooth="yes"/>
      <point x="92" y="69"/>
      <point x="91" y="52"/>
    </contour>
    <contour>
      <point x="338" y="546" type="line"/>
      <point x="365" y="567" type="line"/>
      <point x="265" y="743" type="line"/>
      <point x="233" y="743" type="line"/>
      <point x="78" y="567" type="line"/>
      <point x="97" y="546" type="line"/>
      <point x="262" y="690" type="line"/>
      <point x="216" y="690" type="line"/>
    </contour>
  </outline>
</glyph>
<glyph name="idieresis" format="2">
  <advance width="305"/>
  <unicode hex="00EF"/>
  <anchor x="215" y="506" name="aboveLC"/>
  <anchor x="138" y="-22" name="belowLC"/>
  <anchor x="181" y="0" name="ogonek"/>
  <outline>
    <contour>
      <point x="168" y="625" type="curve" smooth="yes"/>
      <point x="198" y="625"/>
      <point x="223" y="649"/>
      <point x="223" y="683" type="curve" smooth="yes"/>
      <point x="223" y="708"/>
      <point x="204" y="727"/>
      <point x="178" y="727" type="curve" smooth="yes"/>
      <point x="150" y="727"/>
      <point x="123" y="704"/>
      <point x="123" y="670" type="curve" smooth="yes"/>
      <point x="123" y="642"/>
      <point x="144" y="625"/>
    </contour>
    <contour>
      <point x="331" y="625" type="curve" smooth="yes"/>
      <point x="361" y="625"/>
      <point x="386" y="649"/>
      <point x="386" y="683" type="curve" smooth="yes"/>
      <point x="386" y="708"/>
      <point x="367" y="727"/>
      <point x="341" y="727" type="curve" smooth="yes"/>
      <point x="314" y="727"/>
      <point x="287" y="704"/>
      <point x="287" y="670" type="curve" smooth="yes"/>
      <point x="287" y="642"/>
      <point x="308" y="625"/>
    </contour>
    <contour>
      <point x="91" y="38" type="curve" smooth="yes"/>
      <point x="91" y="4"/>
      <point x="117" y="-13"/>
      <point x="144" y="-13" type="curve" smooth="yes"/>
      <point x="215" y="-13"/>
      <point x="266" y="49"/>
      <point x="311" y="109" type="curve"/>
      <point x="287" y="128" type="line"/>
      <point x="246" y="80"/>
      <point x="214" y="55"/>
      <point x="190" y="55" type="curve" smooth="yes"/>
      <point x="179" y="55"/>
      <point x="168" y="63"/>
      <point x="168" y="77" type="curve" smooth="yes"/>
      <point x="168" y="89"/>
      <point x="172" y="110"/>
      <point x="177" y="135" type="curve" smooth="yes"/>
      <point x="248" y="477" type="line"/>
      <point x="235" y="487" type="line"/>
      <point x="66" y="436" type="line"/>
      <point x="62" y="407" type="line"/>
      <point x="182" y="400" type="line"/>
      <point x="165" y="414" type="line"/>
      <point x="101" y="110" type="line" smooth="yes"/>
      <point x="92" y="69"/>
      <point x="91" y="52"/>
    </contour>
  </outline>
</glyph>
<glyph name="ograve" format="2">
  <advance width="487"/>
  <unicode hex="00F2"/>
  <anchor x="380" y="741" name="aboveLC"/>
  <anchor x="202" y="-22" name="belowLC"/>
  <anchor x="416" y="480" name="hornLC"/>
  <anchor x="276" y="0" name="ogonek"/>
  <outline>
    <contour>
      <point x="220" y="-13" type="curve" smooth="yes"/>
      <point x="360" y="-13"/>
      <point x="476" y="138"/>
      <point x="476" y="312" type="curve" smooth="yes"/>
      <point x="476" y="425"/>
      <point x="408" y="487"/>
      <point x="314" y="487" type="curve" smooth="yes"/>
      <point x="173" y="487"/>
      <point x="54" y="343"/>
      <point x="54" y="163" type="curve" smooth="yes"/>
      <point x="54" y="49"/>
      <point x="128" y="-13"/>
    </contour>
    <contour>
      <point x="231" y="27" type="curve" smooth="yes"/>
      <point x="175" y="27"/>
      <point x="134" y="70"/>
      <point x="134" y="176" type="curve" smooth="yes"/>
      <point x="134" y="325"/>
      <point x="208" y="447"/>
      <point x="303" y="447" type="curve" smooth="yes"/>
      <point x="358" y="447"/>
      <point x="396" y="405"/>
      <point x="396" y="296" type="curve" smooth="yes"/>
      <point x="396" y="162"/>
      <point x="330" y="27"/>
    </contour>
    <contour>
      <point x="350" y="549" type="line"/>
      <point x="325" y="605"/>
      <point x="300" y="661"/>
      <point x="275" y="717" type="curve" smooth="yes"/>
      <point x="263" y="743"/>
      <point x="247" y="761"/>
      <point x="225" y="761" type="curve" smooth="yes"/>
      <point x="205" y="761"/>
      <point x="187" y="748"/>
      <point x="187" y="727" type="curve" smooth="yes"/>
      <point x="187" y="710"/>
      <point x="192" y="696"/>
      <point x="208" y="677" type="curve" smooth="yes"/>
      <point x="248" y="629"/>
      <point x="287" y="582"/>
      <point x="327" y="534" type="curve"/>
    </contour>
  </outline>
</glyph>
<glyph name="oacute" format="2">
  <advance width="487"/>
  <unicode hex="00F3"/>
  <anchor x="354" y="759" name="aboveLC"/>
  <anchor x="202" y="-22" name="belowLC"/>
  <anchor x="416" y="480" name="hornLC"/>
  <anchor x="276" y="0" name="ogonek"/>
  <outline>
    <contour>
      <point x="220" y="-13" type="curve" smooth="yes"/>
      <point x="360" y="-13"/>
      <point x="476" y="138"/>
      <point x="476" y="312" type="curve" smooth="yes"/>
      <point x="476" y="425"/>
      <point x="408" y="487"/>
      <point x="314" y="487" type="curve" smooth="yes"/>
      <point x="173" y="487"/>
      <point x="54" y="343"/>
      <point x="54" y="163" type="curve" smooth="yes"/>
      <point x="54" y="49"/>
      <point x="128" y="-13"/>
    </contour>
    <contour>
      <point x="231" y="27" type="curve" smooth="yes"/>
      <point x="175" y="27"/>
      <point x="134" y="70"/>
      <point x="134" y="176" type="curve" smooth="yes"/>
      <point x="134" y="325"/>
      <point x="208" y="447"/>
      <point x="303" y="447" type="curve" smooth="yes"/>
      <point x="358" y="447"/>
      <point x="396" y="405"/>
      <point x="396" y="296" type="curve" smooth="yes"/>
      <point x="396" y="162"/>
      <point x="330" y="27"/>
    </contour>
    <contour>
      <point x="293" y="549" type="curve"/>
      <point x="316" y="534" type="line"/>
      <point x="356" y="582"/>
      <point x="395" y="629"/>
      <point x="435" y="677" type="curve" smooth="yes"/>
      <point x="451" y="696"/>
      <point x="456" y="710"/>
      <point x="456" y="725" type="curve" smooth="yes"/>
      <point x="456" y="748"/>
      <point x="439" y="759"/>
      <point x="418" y="759" type="curve" smooth="yes"/>
      <point x="396" y="759"/>
      <point x="380" y="743"/>
      <point x="368" y="717" type="curve" smooth="yes"/>
      <point x="343" y="661"/>
      <point x="318" y="605"/>
    </contour>
  </outline>
</glyph>
<glyph name="ocircumflex" format="2">
  <advance width="487"/>
  <unicode hex="00F4"/>
  <anchor x="354" y="733" name="aboveLC"/>
  <anchor x="202" y="-22" name="belowLC"/>
  <anchor x="416" y="480" name="hornLC"/>
  <anchor x="276" y="0" name="ogonek"/>
  <outline>
    <contour>
      <point x="220" y="-13" type="curve" smooth="yes"/>
      <point x="360" y="-13"/>
      <point x="476" y="138"/>
      <point x="476" y="312" type="curve" smooth="yes"/>
      <point x="476" y="425"/>
      <point x="408" y="487"/>
      <point x="314" y="487" type="curve" smooth="yes"/>
      <point x="173" y="487"/>
      <point x="54" y="343"/>
      <point x="54" y="163" type="curve" smooth="yes"/>
      <point x="54" y="49"/>
      <point x="128" y="-13"/>
    </contour>
    <contour>
      <point x="231" y="27" type="curve" smooth="yes"/>
      <point x="175" y="27"/>
      <point x="134" y="70"/>
      <point x="134" y="176" type="curve" smooth="yes"/>
      <point x="134" y="325"/>
      <point x="208" y="447"/>
      <point x="303" y="447" type="curve" smooth="yes"/>
      <point x="358" y="447"/>
      <point x="396" y="405"/>
      <point x="396" y="296" type="curve" smooth="yes"/>
      <point x="396" y="162"/>
      <point x="330" y="27"/>
    </contour>
    <contour>
      <point x="443" y="546" type="line"/>
      <point x="470" y="567" type="line"/>
      <point x="370" y="743" type="line"/>
      <point x="338" y="743" type="line"/>
      <point x="183" y="567" type="line"/>
      <point x="202" y="546" type="line"/>
      <point x="367" y="690" type="line"/>
      <point x="321" y="690" type="line"/>
    </contour>
  </outline>
</glyph>
<glyph name="otilde" format="2">
  <advance width="487"/>
  <unicode hex="00F5"/>
  <anchor x="350" y="727" name="aboveLC"/>
  <anchor x="202" y="-22" name="belowLC"/>
  <anchor x="416" y="480" name="hornLC"/>
  <anchor x="276" y="0" name="ogonek"/>
  <outline>
    <contour>
      <point x="220" y="-13" type="curve" smooth="yes"/>
      <point x="360" y="-13"/>
      <point x="476" y="138"/>
      <point x="476" y="312" type="curve" smooth="yes"/>
      <point x="476" y="425"/>
      <point x="408" y="487"/>
      <point x="314" y="487" type="curve" smooth="yes"/>
      <point x="173" y="487"/>
      <point x="54" y="343"/>
      <point x="54" y="163" type="curve" smooth="yes"/>
      <point x="54" y="49"/>
      <point x="128" y="-13"/>
    </contour>
    <contour>
      <point x="231" y="27" type="curve" smooth="yes"/>
      <point x="175" y="27"/>
      <point x="134" y="70"/>
      <point x="134" y="176" type="curve" smooth="yes"/>
      <point x="134" y="325"/>
      <point x="208" y="447"/>
      <point x="303" y="447" type="curve" smooth="yes"/>
      <point x="358" y="447"/>
      <point x="396" y="405"/>
      <point x="396" y="296" type="curve" smooth="yes"/>
      <point x="396" y="162"/>
      <point x="330" y="27"/>
    </contour>
    <contour>
      <point x="160" y="589" type="curve"/>
      <point x="184" y="580" type="line"/>
      <point x="197" y="639"/>
      <point x="225" y="665"/>
      <point x="251" y="665" type="curve" smooth="yes"/>
      <point x="283" y="665"/>
      <point x="303" y="639"/>
      <point x="323" y="616" type="curve" smooth="yes"/>
      <point x="340" y="597"/>
      <point x="360" y="578"/>
      <point x="398" y="578" type="curve" smooth="yes"/>
      <point x="449" y="578"/>
      <point x="489" y="620"/>
      <point x="506" y="706" type="curve"/>
      <point x="481" y="715" type="line"/>
      <point x="468" y="656"/>
      <point x="440" y="630"/>
      <point x="414" y="630" type="curve" smooth="yes"/>
      <point x="383" y="630"/>
      <point x="364" y="656"/>
      <point x="342" y="679" type="curve" smooth="yes"/>
      <point x="325" y="698"/>
      <point x="306" y="717"/>
      <point x="268" y="717" type="curve" smooth="yes"/>
      <point x="218" y="717"/>
      <point x="175" y="675"/>
    </contour>
  </outline>
</glyph>
<glyph name="odieresis" format="2">
  <advance width="487"/>
  <unicode hex="00F6"/>
  <anchor x="352" y="700" name="aboveLC"/>
  <anchor x="202" y="-22" name="belowLC"/>
  <anchor x="416" y="480" name="hornLC"/>
  <anchor x="276" y="0" name="ogonek"/>
  <outline>
    <contour>
      <point x="220" y="-13" type="curve" smooth="yes"/>
      <point x="360" y="-13"/>
      <point x="476" y="138"/>
      <point x="476" y="312" type="curve" smooth="yes"/>
      <point x="476" y="425"/>
      <point x="408" y="487"/>
      <point x="314" y="487" type="curve" smooth="yes"/>
      <point x="173" y="487"/>
      <point x="54" y="343"/>
      <point x="54" y="163" type="curve" smooth="yes"/>
      <point x="54" y="49"/>
      <point x="128" y="-13"/>
    </contour>
    <contour>
      <point x="231" y="27" type="curve" smooth="yes"/>
      <point x="175" y="27"/>
      <point x="134" y="70"/>
      <point x="134" y="176" type="curve" smooth="yes"/>
      <point x="134" y="325"/>
      <point x="208" y="447"/>
      <point x="303" y="447" type="curve" smooth="yes"/>
      <point x="358" y="447"/>
      <point x="396" y="405"/>
      <point x="396" y="296" type="curve" smooth="yes"/>
      <point x="396" y="162"/>
      <point x="330" y="27"/>
    </contour>
    <contour>
      <point x="240" y="625" type="curve" smooth="yes"/>
      <point x="270" y="625"/>
      <point x="295" y="649"/>
      <point x="295" y="683" type="curve" smooth="yes"/>
      <point x="295" y="708"/>
      <point x="276" y="727"/>
      <point x="250" y="727" type="curve" smooth="yes"/>
      <point x="222" y="727"/>
      <point x="195" y="704"/>
      <point x="195" y="670" type="curve" smooth="yes"/>
      <point x="195" y="642"/>
      <point x="216" y="625"/>
    </contour>
    <contour>
      <point x="433" y="625" type="curve" smooth="yes"/>
      <point x="463" y="625"/>
      <point x="488" y="649"/>
      <point x="488" y="683" type="curve" smooth="yes"/>
      <point x="488" y="708"/>
      <point x="469" y="727"/>
      <point x="443" y="727" type="curve" smooth="yes"/>
      <point x="416" y="727"/>
      <point x="389" y="704"/>
      <point x="389" y="670" type="curve" smooth="yes"/>
      <point x="389" y="642"/>
      <point x="410" y="625"/>
    </contour>
  </outline>
</glyph>
<glyph name="ydieresis" format="2">
  <advance width="474"/>
  <unicode hex="00FF"/>
  <anchor x="373" y="700" name="aboveLC"/>
  <anchor x="4" y="-252" name="belowLC"/>
  <outline>
    <contour>
      <point x="-83" y="-183" type="curve"/>
      <point x="-80" y="-216"/>
      <point x="-56" y="-240"/>
      <point x="-12" y="-240" type="curve" smooth="yes"/>
      <point x="46" y="-240"/>
      <point x="104" y="-197"/>
      <point x="170" y="-126" type="curve" smooth="yes"/>
      <point x="211" y="-81"/>
      <point x="238" y="-39"/>
      <point x="264" y="0" type="curve" smooth="yes"/>
      <point x="319" y="83"/>
      <point x="361" y="160"/>
      <point x="398" y="227" type="curve" smooth="yes"/>
      <point x="436" y="295"/>
      <point x="457" y="336"/>
      <point x="478" y="379" type="curve" smooth="yes"/>
      <point x="498" y="419"/>
      <point x="503" y="434"/>
      <point x="503" y="459" type="curve" smooth="yes"/>
      <point x="503" y="479"/>
      <point x="489" y="493"/>
      <point x="466" y="493" type="curve" smooth="yes"/>
      <point x="439" y="493"/>
      <point x="424" y="472"/>
      <point x="391" y="357" type="curve" smooth="yes"/>
      <point x="357" y="239"/>
      <point x="320" y="164"/>
      <point x="245" y="27" type="curve"/>
      <point x="216" y="-21"/>
      <point x="183" y="-64"/>
      <point x="145" y="-102" type="curve" smooth="yes"/>
      <point x="103" y="-145"/>
      <point x="55" y="-178"/>
      <point x="4" y="-203" type="curve"/>
      <point x="81" y="-192" type="line"/>
      <point x="52" y="-172" type="line" smooth="yes"/>
      <point x="23" y="-152"/>
      <point x="0" y="-138"/>
      <point x="-29" y="-138" type="curve" smooth="yes"/>
      <point x="-57" y="-138"/>
      <point x="-78" y="-154"/>
    </contour>
    <contour>
      <point x="254" y="21" type="line"/>
      <point x="250" y="120"/>
      <point x="243" y="228"/>
      <point x="230" y="353" type="curve" smooth="yes"/>
      <point x="218" y="466"/>
      <point x="197" y="487"/>
      <point x="159" y="487" type="curve" smooth="yes"/>
      <point x="117" y="487"/>
      <point x="72" y="453"/>
      <point x="33" y="368" type="curve"/>
      <point x="56" y="352" type="line"/>
      <point x="92" y="407"/>
      <point x="106" y="419"/>
      <point x="123" y="419" type="curve" smooth="yes"/>
      <point x="142" y="419"/>
      <point x="147" y="404"/>
      <point x="163" y="275" type="curve" smooth="yes"/>
      <point x="180" y="141"/>
      <point x="191" y="74"/>
      <point x="199" y="-44" type="curve"/>
    </contour>
    <contour>
      <point x="261" y="625" type="curve" smooth="yes"/>
      <point x="291" y="625"/>
      <point x="316" y="649"/>
      <point x="316" y="683" type="curve" smooth="yes"/>
      <point x="316" y="708"/>
      <point x="297" y="727"/>
      <point x="271" y="727" type="curve" smooth="yes"/>
      <point x="243" y="727"/>
      <point x="216" y="704"/>
      <point x="216" y="670" type="curve" smooth="yes"/>
      <point x="216" y="642"/>
      <point x="237" y="625"/>
    </contour>
    <contour>
      <point x="454" y="625" type="curve" smooth="yes"/>
      <point x="484" y="625"/>
      <point x="509" y="649"/>
      <point x="509" y="683" type="curve" smooth="yes"/>
      <point x="509" y="708"/>
      <point x="490" y="727"/>
      <point x="464" y="727" type="curve" smooth="yes"/>
      <point x="437" y="727"/>
      <point x="410" y="704"/>
      <point x="410" y="670" type="curve" smooth="yes"/>
      <point x="410" y="642"/>
      <point x="431" y="625"/>
    </contour>
  </outline>
</glyph>
<glyph name="Scaron" format="2">
  <advance width="494"/>
  <unicode hex="0160"/>
  <anchor x="383" y="857" name="aboveUC"/>
  <anchor x="205" y="0" name="baseLC"/>
  <anchor x="210" y="-22" name="belowLC"/>
  <outline>
    <contour>
      <point x="34" y="30" type="line"/>
      <point x="76" y="2"/>
      <point x="151" y="-15"/>
      <point x="211" y="-15" type="curve" smooth="yes"/>
      <point x="344" y="-15"/>
      <point x="433" y="61"/>
      <point x="433" y="177" type="curve" smooth="yes"/>
      <point x="433" y="237"/>
      <point x="408" y="289"/>
      <point x="295" y="377" type="curve" smooth="yes"/>
      <point x="224" y="432"/>
      <point x="197" y="471"/>
      <point x="197" y="524" type="curve" smooth="yes"/>
      <point x="197" y="599"/>
      <point x="253" y="635"/>
      <point x="352" y="635" type="curve" smooth="yes"/>
      <point x="381" y="635"/>
      <point x="410" y="631"/>
      <point x="460" y="606" type="curve"/>
      <point x="417" y="640" type="line"/>
      <point x="424" y="500" type="line"/>
      <point x="482" y="500" type="line"/>
      <point x="506" y="640" type="line"/>
      <point x="449" y="673"/>
      <point x="394" y="685"/>
      <point x="340" y="685" type="curve" smooth="yes"/>
      <point x="213" y="685"/>
      <point x="123" y="608"/>
      <point x="123" y="503" type="curve" smooth="yes"/>
      <point x="123" y="441"/>
      <point x="149" y="384"/>
      <point x="251" y="306" type="curve" smooth="yes"/>
      <point x="341" y="237"/>
      <point x="355" y="201"/>
      <point x="355" y="156" type="curve" smooth="yes"/>
      <point x="355" y="86"/>
      <point x="308" y="35"/>
      <point x="207" y="35" type="curve" smooth="yes"/>
      <point x="160" y="35"/>
      <point x="113" y="45"/>
      <point x="75" y="67" type="curve"/>
      <point x="123" y="32" type="line"/>
      <point x="110" y="172" type="line"/>
      <point x="53" y="172" type="line"/>
    </contour>
    <contour>
      <point x="262" y="867" type="line"/>
      <point x="235" y="847" type="line"/>
      <point x="333" y="730" type="line"/>
      <point x="387" y="730" type="line"/>
      <point x="519" y="847" type="line"/>
      <point x="500" y="867" type="line"/>
      <point x="329" y="758" type="line"/>
      <point x="393" y="758" type="line"/>
    </contour>
  </outline>
</glyph>
<glyph name="Ydieresis" format="2">
  <advance width="553"/>
  <unicode hex="0178"/>
  <anchor x="421" y="861" name="aboveUC"/>
  <anchor x="250" y="-22" name="belowLC"/>
  <outline>
    <contour>
      <point x="62" y="630" type="line"/>
      <point x="183" y="615" type="line"/>
      <point x="202" y="615" type="line"/>
      <point x="326" y="630" type="line"/>
      <point x="334" y="670" type="line"/>
      <point x="70" y="670" type="line"/>
    </contour>
    <contour>
      <point x="112" y="0" type="line"/>
      <point x="396" y="0" type="line"/>
      <point x="404" y="40" type="line"/>
      <point x="275" y="55" type="line"/>
      <point x="257" y="55" type="line"/>
      <point x="120" y="40" type="line"/>
    </contour>
    <contour>
      <point x="271" y="250" type="line"/>
      <point x="323" y="250" type="line"/>
      <point x="600" y="670" type="line"/>
      <point x="550" y="670" type="line"/>
      <point x="320" y="314" type="line"/>
      <point x="334" y="314" type="line"/>
      <point x="222" y="670" type="line"/>
      <point x="124" y="670" type="line"/>
    </contour>
    <contour>
      <point x="207" y="0" type="line"/>
      <point x="295" y="0" type="line"/>
      <point x="311" y="103"/>
      <point x="329" y="207"/>
      <point x="348" y="310" type="curve"/>
      <point x="266" y="310" type="line"/>
    </contour>
    <contour>
      <point x="431" y="630" type="line"/>
      <point x="532" y="615" type="line"/>
      <point x="551" y="615" type="line"/>
      <point x="655" y="630" type="line"/>
      <point x="663" y="670" type="line"/>
      <point x="439" y="670" type="line"/>
    </contour>
    <contour>
      <point x="289" y="749" type="curve" smooth="yes"/>
      <point x="319" y="749"/>
      <point x="344" y="773"/>
      <point x="344" y="807" type="curve" smooth="yes"/>
      <point x="344" y="832"/>
      <point x="325" y="851"/>
      <point x="299" y="851" type="curve" smooth="yes"/>
      <point x="271" y="851"/>
      <point x="244" y="828"/>
      <point x="244" y="794" type="curve" smooth="yes"/>
      <point x="244" y="766"/>
      <point x="265" y="749"/>
    </contour>
    <contour>
      <point x="507" y="749" type="curve" smooth="yes"/>
      <point x="538" y="749"/>
      <point x="563" y="773"/>
      <point x="563" y="807" type="curve" smooth="yes"/>
      <point x="563" y="832"/>
      <point x="544" y="851"/>
      <point x="518" y="851" type="curve" smooth="yes"/>
      <point x="490" y="851"/>
      <point x="464" y="828"/>
      <point x="464" y="794" type="curve" smooth="yes"/>
      <point x="464" y="766"/>
      <point x="485" y="749"/>
    </contour>
  </outline>
</glyph>
<glyph name="circumflex" format="2">
  <advance width="307"/>
  <unicode hex="02C6"/>
  <anchor x="214" y="506" name="_aboveLC"/>
  <anchor x="262" y="733" name="aboveLC"/>
  <outline>
    <contour>
      <point x="351" y="546" type="line"/>
      <point x="378" y="567" type="line"/>
      <point x="278" y="743" type="line"/>
      <point x="246" y="743" type="line"/>
      <point x="91" y="567" type="line"/>
      <point x="110" y="546" type="line"/>
      <point x="275" y="690" type="line"/>
      <point x="229" y="690" type="line"/>
    </contour>
  </outline>
</glyph>
<glyph name="caron" format="2">
  <advance width="400"/>
  <unicode hex="02C7"/>
  <anchor x="259" y="506" name="_aboveLC"/>
  <anchor x="309" y="741" name="aboveLC"/>
  <outline>
    <contour>
      <point x="181" y="751" type="line"/>
      <point x="154" y="732" type="line"/>
      <point x="251" y="554" type="line"/>
      <point x="282" y="554" type="line"/>
      <point x="440" y="732" type="line"/>
      <point x="421" y="751" type="line"/>
      <point x="251" y="613" type="line"/>
      <point x="294" y="613" type="line"/>
    </contour>
  </outline>
</glyph>
<glyph name="verticallinemod" format="2">
  <advance width="144"/>
  <unicode hex="02C8"/>
  <outline>
    <contour>
      <point x="116" y="553" type="line"/>
      <point x="174" y="553" type="line"/>
      <point x="220" y="749" type="line"/>
      <point x="150" y="749" type="line"/>
    </contour>
  </outline>
</glyph>
<glyph name="colontriangularmod" format="2">
  <advance width="300"/>
  <unicode hex="02D0"/>
  <outline>
    <contour>
      <point x="122" y="480" type="line"/>
      <point x="169" y="352" type="line"/>
      <point x="177" y="352" type="line"/>
      <point x="278" y="480" type="line"/>
      <point x="276" y="487" type="line"/>
      <point x="128" y="487" type="line"/>
    </contour>
    <contour>
      <point x="22" y="7" type="line"/>
      <point x="24" y="0" type="line"/>
      <point x="172" y="0" type="line"/>
      <point x="178" y="7" type="line"/>
      <point x="131" y="135" type="line"/>
      <point x="123" y="135" type="line"/>
    </contour>
  </outline>
</glyph>
<glyph name="breve" format="2">
  <advance width="400"/>
  <unicode hex="02D8"/>
  <anchor x="253" y="500" name="_aboveLC"/>
  <anchor x="303" y="735" name="aboveLC"/>
  <outline>
    <contour>
      <point x="266" y="575" type="curve" smooth="yes"/>
      <point x="362" y="575"/>
      <point x="415" y="650"/>
      <point x="437" y="723" type="curve"/>
      <point x="404" y="735" type="line"/>
      <point x="377" y="682"/>
      <point x="335" y="639"/>
      <point x="273" y="639" type="curve" smooth="yes"/>
      <point x="212" y="639"/>
      <point x="182" y="683"/>
      <point x="164" y="735" type="curve"/>
      <point x="131" y="719" type="line"/>
      <point x="137" y="650"/>
      <point x="169" y="575"/>
    </contour>
  </outline>
</glyph>
<glyph name="dotaccent" format="2">
  <advance width="400"/>
  <unicode hex="02D9"/>
  <anchor x="271" y="506" name="_aboveLC"/>
  <anchor x="313" y="706" name="aboveLC"/>
  <outline>
    <contour>
      <point x="306" y="627" type="curve" smooth="yes"/>
      <point x="335" y="627"/>
      <point x="361" y="656"/>
      <point x="361" y="688" type="curve" smooth="yes"/>
      <point x="361" y="720"/>
      <point x="340" y="741"/>
      <point x="310" y="741" type="curve" smooth="yes"/>
      <point x="281" y="741"/>
      <point x="255" y="713"/>
      <point x="255" y="680" type="curve" smooth="yes"/>
      <point x="255" y="648"/>
      <point x="276" y="627"/>
    </contour>
  </outline>
</glyph>
<glyph name="ring" format="2">
  <advance width="400"/>
  <unicode hex="02DA"/>
  <anchor x="263" y="510" name="_aboveLC"/>
  <anchor x="316" y="761" name="aboveLC"/>
  <outline>
    <contour>
      <point x="284" y="549" type="curve" smooth="yes"/>
      <point x="339" y="549"/>
      <point x="398" y="589"/>
      <point x="398" y="662" type="curve" smooth="yes"/>
      <point x="398" y="717"/>
      <point x="352" y="751"/>
      <point x="301" y="751" type="curve" smooth="yes"/>
      <point x="248" y="751"/>
      <point x="188" y="711"/>
      <point x="188" y="640" type="curve" smooth="yes"/>
      <point x="188" y="584"/>
      <point x="231" y="549"/>
    </contour>
    <contour>
      <point x="287" y="586" type="curve" smooth="yes"/>
      <point x="248" y="586"/>
      <point x="233" y="615"/>
      <point x="233" y="642" type="curve" smooth="yes"/>
      <point x="233" y="678"/>
      <point x="259" y="715"/>
      <point x="300" y="715" type="curve" smooth="yes"/>
      <point x="336" y="715"/>
      <point x="353" y="687"/>
      <point x="353" y="659" type="curve" smooth="yes"/>
      <point x="353" y="620"/>
      <point x="323" y="586"/>
    </contour>
  </outline>
</glyph>
<glyph name="ogonek" format="2">
  <advance width="400"/>
  <unicode hex="02DB"/>
  <anchor x="146" y="0" name="_ogonek"/>
  <outline>
    <contour>
      <point x="37" y="-162" type="curve" smooth="yes"/>
      <point x="37" y="-210"/>
      <point x="69" y="-240"/>
      <point x="126" y="-240" type="curve" smooth="yes"/>
      <point x="170" y="-240"/>
      <point x="215" y="-212"/>
      <point x="241" y="-183" type="curve"/>
      <point x="229" y="-166" type="line"/>
      <point x="206" y="-183"/>
      <point x="174" y="-195"/>
      <point x="149" y="-195" type="curve" smooth="yes"/>
      <point x="120" y="-195"/>
      <point x="99" y="-176"/>
      <point x="99" y="-137" type="curve" smooth="yes"/>
      <point x="99" y="-79"/>
      <point x="141" y="-29"/>
      <point x="185" y="13" type="curve"/>
      <point x="152" y="13" type="line"/>
      <point x="99" y="-38"/>
      <point x="37" y="-96"/>
    </contour>
  </outline>
</glyph>
<glyph name="tilde" format="2">
  <advance width="400"/>
  <unicode hex="02DC"/>
  <anchor x="255" y="506" name="_aboveLC"/>
  <anchor x="301" y="724" name="aboveLC"/>
  <outline>
    <contour>
      <point x="111" y="586" type="curve"/>
      <point x="135" y="577" type="line"/>
      <point x="148" y="636"/>
      <point x="176" y="662"/>
      <point x="202" y="662" type="curve" smooth="yes"/>
      <point x="234" y="662"/>
      <point x="254" y="636"/>
      <point x="274" y="613" type="curve" smooth="yes"/>
      <point x="291" y="594"/>
      <point x="311" y="575"/>
      <point x="349" y="575" type="curve" smooth="yes"/>
      <point x="400" y="575"/>
      <point x="440" y="617"/>
      <point x="457" y="703" type="curve"/>
      <point x="432" y="712" type="line"/>
      <point x="419" y="653"/>
      <point x="391" y="627"/>
      <point x="365" y="627" type="curve" smooth="yes"/>
      <point x="334" y="627"/>
      <point x="315" y="653"/>
      <point x="293" y="676" type="curve" smooth="yes"/>
      <point x="276" y="695"/>
      <point x="257" y="714"/>
      <point x="219" y="714" type="curve" smooth="yes"/>
      <point x="169" y="714"/>
      <point x="126" y="672"/>
    </contour>
  </outline>
</glyph>
<glyph name="hungarumlaut" format="2">
  <advance width="400"/>
  <unicode hex="02DD"/>
  <anchor x="223" y="506" name="_aboveLC"/>
  <anchor x="275" y="752" name="aboveLC"/>
  <outline>
    <contour>
      <point x="139" y="574" type="line"/>
      <point x="162" y="556" type="line"/>
      <point x="276" y="663" type="line" smooth="yes"/>
      <point x="300" y="685"/>
      <point x="307" y="706"/>
      <point x="307" y="721" type="curve" smooth="yes"/>
      <point x="307" y="740"/>
      <point x="292" y="752"/>
      <point x="273" y="752" type="curve" smooth="yes"/>
      <point x="258" y="752"/>
      <point x="238" y="741"/>
      <point x="220" y="710" type="curve" smooth="yes"/>
    </contour>
    <contour>
      <point x="277" y="574" type="line"/>
      <point x="300" y="556" type="line"/>
      <point x="414" y="663" type="line" smooth="yes"/>
      <point x="438" y="685"/>
      <point x="445" y="706"/>
      <point x="445" y="721" type="curve" smooth="yes"/>
      <point x="445" y="740"/>
      <point x="430" y="752"/>
      <point x="411" y="752" type="curve" smooth="yes"/>
      <point x="396" y="752"/>
      <point x="376" y="741"/>
      <point x="358" y="710" type="curve" smooth="yes"/>
    </contour>
  </outline>
</glyph>
<glyph name="circumflexcmb" format="2">
  <unicode hex="0302"/>
  <anchor x="108" y="506" name="_aboveLC"/>
  <anchor x="156" y="733" name="aboveLC"/>
  <outline>
    <contour>
      <point x="245" y="546" type="line"/>
      <point x="272" y="567" type="line"/>
      <point x="172" y="743" type="line"/>
      <point x="140" y="743" type="line"/>
      <point x="-15" y="567" type="line"/>
      <point x="4" y="546" type="line"/>
      <point x="169" y="690" type="line"/>
      <point x="123" y="690" type="line"/>
    </contour>
  </outline>
</glyph>
<glyph name="verticallinebelowcmb" format="2">
  <unicode hex="0329"/>
  <anchor x="-5" y="-22" name="_belowLC"/>
  <anchor x="-59" y="-276" name="belowLC"/>
  <outline>
    <contour>
      <point x="-86" y="-266" type="line"/>
      <point x="-16" y="-266" type="line"/>
      <point x="14" y="-71" type="line"/>
      <point x="-44" y="-71" type="line"/>
    </contour>
  </outline>
</glyph>
<glyph name="ieukran" format="2">
  <advance width="405"/>
  <unicode hex="0454"/>
  <anchor x="300" y="506" name="aboveLC"/>
  <outline>
    <contour>
      <point x="101" y="231" type="line"/>
      <point x="303" y="227" type="line"/>
      <point x="313" y="271" type="line"/>
      <point x="108" y="265" type="line"/>
    </contour>
    <component base="es"/>
  </outline>
</glyph>
<glyph name="ustraightstroke" format="2">
  <advance width="477"/>
  <unicode hex="04B1"/>
  <anchor x="311" y="496" name="aboveLC"/>
  <outline>
    <contour>
      <point x="22" y="0" type="line"/>
      <point x="399" y="0" type="line"/>
      <point x="406" y="42" type="line"/>
      <point x="30" y="42" type="line"/>
    </contour>
    <component base="ustraight"/>
  </outline>
</glyph>
<glyph name="figuredash" format="2">
  <advance width="510"/>
  <unicode hex="2012"/>
  <outline>
    <contour>
      <point x="66" y="219" type="line"/>
      <point x="483" y="219" type="line"/>
      <point x="483" y="283" type="line"/>
      <point x="66" y="283" type="line"/>
    </contour>
  </outline>
</glyph>
<glyph name="horizontalbar" format="2">
  <advance width="810"/>
  <unicode hex="2015"/>
  <outline>
    <contour>
      <point x="56" y="219" type="line"/>
      <point x="786" y="219" type="line"/>
      <point x="786" y="283" type="line"/>
      <point x="56" y="283" type="line"/>
    </contour>
  </outline>
</glyph>
<glyph name="quoteright" format="2">
  <advance width="275"/>
  <unicode hex="2019"/>
  <outline>
    <contour>
      <point x="246" y="717" type="curve" smooth="yes"/>
      <point x="217" y="717"/>
      <point x="192" y="696"/>
      <point x="192" y="652" type="curve" smooth="yes"/>
      <point x="192" y="635"/>
      <point x="201" y="618"/>
      <point x="216" y="596" type="curve" smooth="yes"/>
      <point x="246" y="554" type="line"/>
      <point x="246" y="592" type="line"/>
      <point x="209" y="532"/>
      <point x="183" y="504"/>
      <point x="130" y="463" type="curve"/>
      <point x="150" y="435" type="line"/>
      <point x="245" y="496"/>
      <point x="304" y="574"/>
      <point x="304" y="661" type="curve" smooth="yes"/>
      <point x="304" y="674"/>
      <point x="302" y="686"/>
      <point x="300" y="696" type="curve"/>
      <point x="281" y="713"/>
      <point x="266" y="717"/>
    </contour>
  </outline>
</glyph>
<glyph name="quotesinglbase" format="2">
  <advance width="295"/>
  <unicode hex="201A"/>
  <outline>
    <contour>
      <point x="128" y="115" type="curve" smooth="yes"/>
      <point x="99" y="115"/>
      <point x="74" y="94"/>
      <point x="74" y="50" type="curve" smooth="yes"/>
      <point x="74" y="33"/>
      <point x="83" y="16"/>
      <point x="98" y="-6" type="curve" smooth="yes"/>
      <point x="128" y="-48" type="line"/>
      <point x="128" y="-10" type="line"/>
      <point x="91" y="-70"/>
      <point x="65" y="-98"/>
      <point x="12" y="-139" type="curve"/>
      <point x="32" y="-167" type="line"/>
      <point x="127" y="-106"/>
      <point x="186" y="-28"/>
      <point x="186" y="59" type="curve" smooth="yes"/>
      <point x="186" y="72"/>
      <point x="184" y="84"/>
      <point x="182" y="94" type="curve"/>
      <point x="163" y="111"/>
      <point x="148" y="115"/>
    </contour>
  </outline>
</glyph>
<glyph name="quotedblleft" format="2">
  <advance width="475"/>
  <unicode hex="201C"/>
  <outline>
    <contour>
      <point x="209" y="477" type="curve" smooth="yes"/>
      <point x="238" y="477"/>
      <point x="263" y="498"/>
      <point x="263" y="542" type="curve" smooth="yes"/>
      <point x="263" y="559"/>
      <point x="254" y="576"/>
      <point x="239" y="598" type="curve" smooth="yes"/>
      <point x="209" y="640" type="line"/>
      <point x="209" y="602" type="line"/>
      <point x="246" y="662"/>
      <point x="272" y="690"/>
      <point x="325" y="731" type="curve"/>
      <point x="305" y="759" type="line"/>
      <point x="210" y="698"/>
      <point x="151" y="620"/>
      <point x="151" y="533" type="curve" smooth="yes"/>
      <point x="151" y="520"/>
      <point x="153" y="508"/>
      <point x="155" y="498" type="curve"/>
      <point x="174" y="481"/>
      <point x="189" y="477"/>
    </contour>
    <contour>
      <point x="409" y="477" type="curve" smooth="yes"/>
      <point x="438" y="477"/>
      <point x="463" y="498"/>
      <point x="463" y="542" type="curve" smooth="yes"/>
      <point x="463" y="559"/>
      <point x="454" y="576"/>
      <point x="439" y="598" type="curve" smooth="yes"/>
      <point x="409" y="640" type="line"/>
      <point x="409" y="602" type="line"/>
      <point x="446" y="662"/>
      <point x="472" y="690"/>
      <point x="525" y="731" type="curve"/>
      <point x="505" y="759" type="line"/>
      <point x="410" y="698"/>
      <point x="351" y="620"/>
      <point x="351" y="533" type="curve" smooth="yes"/>
      <point x="351" y="520"/>
      <point x="353" y="508"/>
      <point x="355" y="498" type="curve"/>
      <point x="374" y="481"/>
      <point x="389" y="477"/>
    </contour>
  </outline>
</glyph>
<glyph name="quotedblright" format="2">
  <advance width="475"/>
  <unicode hex="201D"/>
  <outline>
    <contour>
      <point x="446" y="717" type="curve" smooth="yes"/>
      <point x="417" y="717"/>
      <point x="392" y="696"/>
      <point x="392" y="652" type="curve" smooth="yes"/>
      <point x="392" y="635"/>
      <point x="401" y="618"/>
      <point x="416" y="596" type="curve" smooth="yes"/>
      <point x="446" y="554" type="line"/>
      <point x="446" y="592" type="line"/>
      <point x="409" y="532"/>
      <point x="383" y="504"/>
      <point x="330" y="463" type="curve"/>
      <point x="350" y="435" type="line"/>
      <point x="445" y="496"/>
      <point x="504" y="574"/>
      <point x="504" y="661" type="curve" smooth="yes"/>
      <point x="504" y="674"/>
      <point x="502" y="686"/>
      <point x="500" y="696" type="curve"/>
      <point x="481" y="713"/>
      <point x="466" y="717"/>
    </contour>
    <contour>
      <point x="246" y="717" type="curve" smooth="yes"/>
      <point x="217" y="717"/>
      <point x="192" y="696"/>
      <point x="192" y="652" type="curve" smooth="yes"/>
      <point x="192" y="635"/>
      <point x="201" y="618"/>
      <point x="216" y="596" type="curve" smooth="yes"/>
      <point x="246" y="554" type="line"/>
      <point x="246" y="592" type="line"/>
      <point x="209" y="532"/>
      <point x="183" y="504"/>
      <point x="130" y="463" type="curve"/>
      <point x="150" y="435" type="line"/>
      <point x="245" y="496"/>
      <point x="304" y="574"/>
      <point x="304" y="661" type="curve" smooth="yes"/>
      <point x="304" y="674"/>
      <point x="302" y="686"/>
      <point x="300" y="696" type="curve"/>
      <point x="281" y="713"/>
      <point x="266" y="717"/>
    </contour>
  </outline>
</glyph>
<glyph name="quotedblbase" format="2">
  <advance width="495"/>
  <unicode hex="201E"/>
  <outline>
    <contour>
      <point x="328" y="115" type="curve" smooth="yes"/>
      <point x="299" y="115"/>
      <point x="274" y="94"/>
      <point x="274" y="50" type="curve" smooth="yes"/>
      <point x="274" y="33"/>
      <point x="283" y="16"/>
      <point x="298" y="-6" type="curve" smooth="yes"/>
      <point x="328" y="-48" type="line"/>
      <point x="328" y="-10" type="line"/>
      <point x="291" y="-70"/>
      <point x="265" y="-98"/>
      <point x="212" y="-139" type="curve"/>
      <point x="232" y="-167" type="line"/>
      <point x="327" y="-106"/>
      <point x="386" y="-28"/>
      <point x="386" y="59" type="curve" smooth="yes"/>
      <point x="386" y="72"/>
      <point x="384" y="84"/>
      <point x="382" y="94" type="curve"/>
      <point x="363" y="111"/>
      <point x="348" y="115"/>
    </contour>
    <contour>
      <point x="128" y="115" type="curve" smooth="yes"/>
      <point x="99" y="115"/>
      <point x="74" y="94"/>
      <point x="74" y="50" type="curve" smooth="yes"/>
      <point x="74" y="33"/>
      <point x="83" y="16"/>
      <point x="98" y="-6" type="curve" smooth="yes"/>
      <point x="128" y="-48" type="line"/>
      <point x="128" y="-10" type="line"/>
      <point x="91" y="-70"/>
      <point x="65" y="-98"/>
      <point x="12" y="-139" type="curve"/>
      <point x="32" y="-167" type="line"/>
      <point x="127" y="-106"/>
      <point x="186" y="-28"/>
      <point x="186" y="59" type="curve" smooth="yes"/>
      <point x="186" y="72"/>
      <point x="184" y="84"/>
      <point x="182" y="94" type="curve"/>
      <point x="163" y="111"/>
      <point x="148" y="115"/>
    </contour>
  </outline>
</glyph>
<glyph name="ellipsis" format="2">
  <advance width="900"/>
  <unicode hex="2026"/>
  <outline>
    <contour>
      <point x="122" y="-10" type="curve" smooth="yes"/>
      <point x="160" y="-10"/>
      <point x="191" y="19"/>
      <point x="191" y="58" type="curve" smooth="yes"/>
      <point x="191" y="89"/>
      <point x="168" y="115"/>
      <point x="134" y="115" type="curve" smooth="yes"/>
      <point x="96" y="115"/>
      <point x="63" y="86"/>
      <point x="63" y="47" type="curve" smooth="yes"/>
      <point x="63" y="14"/>
      <point x="88" y="-10"/>
    </contour>
    <contour>
      <point x="422" y="-10" type="curve" smooth="yes"/>
      <point x="460" y="-10"/>
      <point x="491" y="19"/>
      <point x="491" y="58" type="curve" smooth="yes"/>
      <point x="491" y="89"/>
      <point x="468" y="115"/>
      <point x="434" y="115" type="curve" smooth="yes"/>
      <point x="396" y="115"/>
      <point x="363" y="86"/>
      <point x="363" y="47" type="curve" smooth="yes"/>
      <point x="363" y="14"/>
      <point x="388" y="-10"/>
    </contour>
    <contour>
      <point x="722" y="-10" type="curve" smooth="yes"/>
      <point x="760" y="-10"/>
      <point x="791" y="19"/>
      <point x="791" y="58" type="curve" smooth="yes"/>
      <point x="791" y="89"/>
      <point x="768" y="115"/>
      <point x="734" y="115" type="curve" smooth="yes"/>
      <point x="696" y="115"/>
      <point x="663" y="86"/>
      <point x="663" y="47" type="curve" smooth="yes"/>
      <point x="663" y="14"/>
      <point x="688" y="-10"/>
    </contour>
  </outline>
</glyph>
<glyph name="uni2027" format="2">
  <advance width="300"/>
  <unicode hex="2027"/>
  <outline>
    <contour>
      <point x="142" y="180" type="curve" smooth="yes"/>
      <point x="180" y="180"/>
      <point x="211" y="209"/>
      <point x="211" y="248" type="curve" smooth="yes"/>
      <point x="211" y="279"/>
      <point x="188" y="305"/>
      <point x="154" y="305" type="curve" smooth="yes"/>
      <point x="116" y="305"/>
      <point x="83" y="276"/>
      <point x="83" y="237" type="curve" smooth="yes"/>
      <point x="83" y="204"/>
      <point x="108" y="180"/>
    </contour>
  </outline>
</glyph>
<glyph name="guilsinglright" format="2">
  <advance width="349"/>
  <unicode hex="203A"/>
  <outline>
    <contour>
      <point x="132" y="454" type="line"/>
      <point x="104" y="427" type="line"/>
      <point x="249" y="233" type="line"/>
      <point x="256" y="272" type="line"/>
      <point x="52" y="81" type="line"/>
      <point x="74" y="51" type="line"/>
      <point x="299" y="226" type="line"/>
      <point x="308" y="279" type="line"/>
    </contour>
  </outline>
</glyph>
<glyph name="bulletoperator" format="2">
  <advance width="300"/>
  <unicode hex="2219"/>
  <outline>
    <contour>
      <point x="182" y="263" type="curve" smooth="yes"/>
      <point x="220" y="263"/>
      <point x="251" y="292"/>
      <point x="251" y="331" type="curve" smooth="yes"/>
      <point x="251" y="362"/>
      <point x="228" y="388"/>
      <point x="194" y="388" type="curve" smooth="yes"/>
      <point x="156" y="388"/>
      <point x="123" y="359"/>
      <point x="123" y="320" type="curve" smooth="yes"/>
      <point x="123" y="287"/>
      <point x="148" y="263"/>
    </contour>
  </outline>
</glyph>
<glyph name="radical" format="2">
  <advance width="557"/>
  <unicode hex="221A"/>
  <outline>
    <contour>
      <point x="159" y="333" type="line"/>
      <point x="289" y="-100" type="line"/>
      <point x="337" y="-100" type="line"/>
      <point x="628" y="782" type="line"/>
      <point x="551" y="782" type="line"/>
      <point x="313" y="-46" type="line"/>
      <point x="342" y="-46" type="line"/>
      <point x="224" y="354" type="line"/>
      <point x="89" y="354" type="line"/>
      <point x="89" y="306" type="line"/>
      <point x="184" y="306" type="line"/>
    </contour>
  </outline>
</glyph>
<glyph name="approxequal" format="2">
  <advance width="530"/>
  <unicode hex="2248"/>
  <outline>
    <contour>
      <point x="299" y="230" type="curve" smooth="yes"/>
      <point x="262" y="263"/>
      <point x="230" y="281"/>
      <point x="191" y="281" type="curve" smooth="yes"/>
      <point x="121" y="281"/>
      <point x="85" y="235"/>
      <point x="79" y="151" type="curve"/>
      <point x="125" y="143" type="line"/>
      <point x="133" y="209"/>
      <point x="159" y="229"/>
      <point x="185" y="229" type="curve" smooth="yes"/>
      <point x="211" y="229"/>
      <point x="234" y="218"/>
      <point x="264" y="190" type="curve" smooth="yes"/>
      <point x="301" y="157"/>
      <point x="333" y="139"/>
      <point x="372" y="139" type="curve" smooth="yes"/>
      <point x="442" y="139"/>
      <point x="478" y="185"/>
      <point x="484" y="269" type="curve"/>
      <point x="438" y="277" type="line"/>
      <point x="430" y="211"/>
      <point x="404" y="191"/>
      <point x="378" y="191" type="curve" smooth="yes"/>
      <point x="352" y="191"/>
      <point x="329" y="202"/>
    </contour>
    <contour>
      <point x="299" y="470" type="curve" smooth="yes"/>
      <point x="262" y="503"/>
      <point x="230" y="521"/>
      <point x="191" y="521" type="curve" smooth="yes"/>
      <point x="121" y="521"/>
      <point x="85" y="475"/>
      <point x="79" y="391" type="curve"/>
      <point x="125" y="383" type="line"/>
      <point x="133" y="449"/>
      <point x="159" y="469"/>
      <point x="185" y="469" type="curve" smooth="yes"/>
      <point x="211" y="469"/>
      <point x="234" y="458"/>
      <point x="264" y="430" type="curve" smooth="yes"/>
      <point x="301" y="397"/>
      <point x="333" y="379"/>
      <point x="372" y="379" type="curve" smooth="yes"/>
      <point x="442" y="379"/>
      <point x="478" y="425"/>
      <point x="484" y="509" type="curve"/>
      <point x="438" y="517" type="line"/>
      <point x="430" y="451"/>
      <point x="404" y="431"/>
      <point x="378" y="431" type="curve" smooth="yes"/>
      <point x="352" y="431"/>
      <point x="329" y="442"/>
    </contour>
  </outline>
</glyph>
<glyph name="notequal" format="2">
  <advance width="530"/>
  <unicode hex="2260"/>
  <outline>
    <contour>
      <point x="144" y="60" type="line"/>
      <point x="440" y="584" type="line"/>
      <point x="408" y="600" type="line"/>
      <point x="112" y="75" type="line"/>
    </contour>
    <contour>
      <point x="503" y="204" type="line"/>
      <point x="503" y="256" type="line"/>
      <point x="59" y="256" type="line"/>
      <point x="59" y="204" type="line"/>
    </contour>
    <contour>
      <point x="503" y="404" type="line"/>
      <point x="503" y="456" type="line"/>
      <point x="59" y="456" type="line"/>
      <point x="59" y="404" type="line"/>
    </contour>
  </outline>
</glyph>
<glyph name="uni25CC" format="2">
  <advance width="600"/>
  <unicode hex="25CC"/>
  <anchor x="300" y="-22" name="L"/>
  <anchor x="300" y="522" name="U"/>
  <outline>
    <contour>
      <point x="116" y="102" type="curve" smooth="yes"/>
      <point x="140" y="102"/>
      <point x="155" y="116"/>
      <point x="155" y="141" type="curve" smooth="yes"/>
      <point x="155" y="166"/>
      <point x="139" y="181"/>
      <point x="116" y="181" type="curve" smooth="yes"/>
      <point x="97" y="181"/>
      <point x="79" y="166"/>
      <point x="79" y="141" type="curve" smooth="yes"/>
      <point x="79" y="116"/>
      <point x="97" y="102"/>
    </contour>
    <contour>
      <point x="88" y="210" type="curve" smooth="yes"/>
      <point x="112" y="210"/>
      <point x="128" y="225"/>
      <point x="128" y="251" type="curve" smooth="yes"/>
      <point x="128" y="275"/>
      <point x="111" y="289"/>
      <point x="88" y="289" type="curve" smooth="yes"/>
      <point x="68" y="289"/>
      <point x="50" y="275"/>
      <point x="50" y="251" type="curve" smooth="yes"/>
      <point x="50" y="225"/>
      <point x="68" y="210"/>
    </contour>
    <contour>
      <point x="116" y="319" type="curve" smooth="yes"/>
      <point x="140" y="319"/>
      <point x="155" y="335"/>
      <point x="155" y="360" type="curve" smooth="yes"/>
      <point x="155" y="386"/>
      <point x="139" y="399"/>
      <point x="116" y="399" type="curve" smooth="yes"/>
      <point x="97" y="399"/>
      <point x="79" y="386"/>
      <point x="79" y="360" type="curve" smooth="yes"/>
      <point x="79" y="335"/>
      <point x="97" y="319"/>
    </contour>
    <contour>
      <point x="194" y="20" type="curve" smooth="yes"/>
      <point x="217" y="20"/>
      <point x="233" y="35"/>
      <point x="233" y="61" type="curve" smooth="yes"/>
      <point x="233" y="85"/>
      <point x="215" y="99"/>
      <point x="194" y="99" type="curve" smooth="yes"/>
      <point x="173" y="99"/>
      <point x="155" y="85"/>
      <point x="155" y="61" type="curve" smooth="yes"/>
      <point x="155" y="35"/>
      <point x="173" y="20"/>
    </contour>
    <contour>
      <point x="194" y="401" type="curve" smooth="yes"/>
      <point x="217" y="401"/>
      <point x="233" y="416"/>
      <point x="233" y="440" type="curve" smooth="yes"/>
      <point x="233" y="466"/>
      <point x="215" y="480"/>
      <point x="194" y="480" type="curve" smooth="yes"/>
      <point x="173" y="480"/>
      <point x="155" y="466"/>
      <point x="155" y="440" type="curve" smooth="yes"/>
      <point x="155" y="416"/>
      <point x="173" y="401"/>
    </contour>
    <contour>
      <point x="299" y="-7" type="curve" smooth="yes"/>
      <point x="323" y="-7"/>
      <point x="338" y="8"/>
      <point x="338" y="34" type="curve" smooth="yes"/>
      <point x="338" y="58"/>
      <point x="322" y="72"/>
      <point x="299" y="72" type="curve" smooth="yes"/>
      <point x="279" y="72"/>
      <point x="262" y="58"/>
      <point x="262" y="34" type="curve" smooth="yes"/>
      <point x="262" y="8"/>
      <point x="279" y="-7"/>
    </contour>
    <contour>
      <point x="299" y="427" type="curve" smooth="yes"/>
      <point x="323" y="427"/>
      <point x="338" y="443"/>
      <point x="338" y="468" type="curve" smooth="yes"/>
      <point x="338" y="492"/>
      <point x="322" y="506"/>
      <point x="299" y="506" type="curve" smooth="yes"/>
      <point x="279" y="506"/>
      <point x="262" y="492"/>
      <point x="262" y="468" type="curve" smooth="yes"/>
      <point x="262" y="443"/>
      <point x="279" y="427"/>
    </contour>
    <contour>
      <point x="404" y="20" type="curve" smooth="yes"/>
      <point x="428" y="20"/>
      <point x="444" y="35"/>
      <point x="444" y="61" type="curve" smooth="yes"/>
      <point x="444" y="85"/>
      <point x="426" y="99"/>
      <point x="404" y="99" type="curve" smooth="yes"/>
      <point x="384" y="99"/>
      <point x="366" y="85"/>
      <point x="366" y="61" type="curve" smooth="yes"/>
      <point x="366" y="35"/>
      <point x="384" y="20"/>
    </contour>
    <contour>
      <point x="404" y="400" type="curve" smooth="yes"/>
      <point x="428" y="400"/>
      <point x="444" y="415"/>
      <point x="444" y="440" type="curve" smooth="yes"/>
      <point x="444" y="465"/>
      <point x="426" y="480"/>
      <point x="404" y="480" type="curve" smooth="yes"/>
      <point x="384" y="480"/>
      <point x="366" y="465"/>
      <point x="366" y="440" type="curve" smooth="yes"/>
      <point x="366" y="415"/>
      <point x="384" y="400"/>
    </contour>
    <contour>
      <point x="484" y="102" type="curve" smooth="yes"/>
      <point x="506" y="102"/>
      <point x="522" y="116"/>
      <point x="522" y="141" type="curve" smooth="yes"/>
      <point x="522" y="166"/>
      <point x="505" y="181"/>
      <point x="484" y="181" type="curve" smooth="yes"/>
      <point x="462" y="181"/>
      <point x="444" y="166"/>
      <point x="444" y="141" type="curve" smooth="yes"/>
      <point x="444" y="116"/>
      <point x="462" y="102"/>
    </contour>
    <contour>
      <point x="511" y="210" type="curve" smooth="yes"/>
      <point x="534" y="210"/>
      <point x="550" y="225"/>
      <point x="550" y="251" type="curve" smooth="yes"/>
      <point x="550" y="275"/>
      <point x="532" y="289"/>
      <point x="511" y="289" type="curve" smooth="yes"/>
      <point x="489" y="289"/>
      <point x="472" y="275"/>
      <point x="472" y="251" type="curve" smooth="yes"/>
      <point x="472" y="225"/>
      <point x="489" y="210"/>
    </contour>
    <contour>
      <point x="484" y="319" type="curve" smooth="yes"/>
      <point x="506" y="319"/>
      <point x="522" y="334"/>
      <point x="522" y="359" type="curve" smooth="yes"/>
      <point x="522" y="384"/>
      <point x="505" y="398"/>
      <point x="484" y="398" type="curve" smooth="yes"/>
      <point x="462" y="398"/>
      <point x="444" y="384"/>
      <point x="444" y="359" type="curve" smooth="yes"/>
      <point x="444" y="334"/>
      <point x="462" y="319"/>
    </contour>
  </outline>
</glyph>
<glyph name="caroncmb.cap" format="2">
  <anchor x="147" y="691" name="_aboveUC"/>
  <anchor x="182" y="857" name="aboveUC"/>
  <outline>
    <contour>
      <point x="61" y="867" type="line"/>
      <point x="34" y="847" type="line"/>
      <point x="132" y="730" type="line"/>
      <point x="186" y="730" type="line"/>
      <point x="318" y="847" type="line"/>
      <point x="299" y="867" type="line"/>
      <point x="128" y="758" type="line"/>
      <point x="192" y="758" type="line"/>
    </contour>
  </outline>
</glyph>
<glyph name="macroncmb.cap" format="2">
  <anchor x="147" y="691" name="_aboveUC"/>
  <anchor x="176" y="827" name="aboveUC"/>
  <outline>
    <contour>
      <point x="2" y="760" type="line"/>
      <point x="302" y="760" type="line"/>
      <point x="313" y="817" type="line"/>
      <point x="13" y="817" type="line"/>
    </contour>
  </outline>
</glyph>
